<svg width="300" height="240" viewBox="0 0 510 410" version="1.1" xmlns="http://www.w3.org/2000/svg" xmlns:xlink="http://www.w3.org/1999/xlink" xml:space="preserve" style="fill-rule:evenodd;clip-rule:evenodd;stroke-linejoin:round;stroke-miterlimit:1.41421;"><rect width="100%" height="100%" fill="#fff"></rect><g><path d="M61.88,40.685c0,42.853 0,19.707 0,62.561c0.84,0.042 1.987,-0.225 2.116,0.528c-0.566,0.942 -0.197,2.528 0.353,3.352c0.675,0.513 1.755,-1.631 2.645,-0.354c-0.436,1.798 -2.554,1.914 -2.998,3.703c0.476,0.759 1.387,1.082 2.646,1.059c0.19,1.397 1.772,1.402 2.468,2.292c0.271,1.211 -1.045,0.836 -1.058,1.764c0.886,0.409 1.137,1.45 1.235,2.646c1.366,-0.133 1.537,0.932 2.821,0.88c1.07,-2.36 -1.922,-3.401 -1.763,-5.994c0.875,-0.42 1.339,-1.248 1.94,-1.94c2.009,-0.188 2.137,1.506 3.703,1.763c1.669,-1.928 -1.164,-3.215 -0.352,-5.291c0.396,-0.309 1.326,-0.084 1.763,-0.352c0.86,-2.609 2.472,-4.464 3.88,-6.526c1.242,0.757 1.451,2.547 1.587,4.409c0.56,0.498 1.879,0.239 1.94,1.234c-0.095,1.026 -1.842,1.329 -1.235,2.47c0.507,-0.272 1.691,-0.559 2.293,-0.176c-0.235,1.638 -0.135,3.388 0.176,4.937c1.632,0.912 2.37,-1.682 3.704,-0.528c0.751,2.353 -3.859,3.064 -3.88,4.584c-0.025,1.753 2.265,0.328 3.174,1.587c0,0.529 0,1.058 0,1.588c0.787,0.506 2.911,-0.324 3.174,0.705c0.501,2.029 -1.699,1.357 -1.587,2.998c0.359,1.05 1.744,0.379 2.293,0.529c-0.133,1.514 -1.626,1.666 -1.94,2.997c1.208,0.8 2.955,-0.148 4.232,0c-0.073,-1.337 -1.35,-1.471 -1.058,-3.173c-0.355,-0.525 -1.296,-0.804 -0.705,-1.764c2.114,-0.056 2.606,1.509 4.585,1.588c1.056,-1.039 0.163,-2.724 0.176,-4.233c0.53,-0.646 2.158,-0.193 2.469,-1.058c-0.057,-0.412 -0.211,-0.729 -0.353,-1.058c-1.28,0.212 -5.953,1.624 -5.995,-1.234c0.563,-0.848 1.912,-0.91 2.469,-1.765c-0.36,-0.756 -0.196,-2.036 -0.706,-2.645c-0.949,-0.202 -2.744,-0.05 -3.703,-0.705c-0.92,-1.608 1.156,-1.655 2.293,-2.645c1.266,-1.106 2.992,-3.204 5.29,-3.175c-0.337,-2.176 -2.55,-4.697 0.705,-5.29c-0.665,-1.619 0.952,-1.66 0.706,-2.645c-0.308,-0.733 -1.398,0.262 -1.764,-0.53c0.193,-0.923 0.909,-1.324 1.588,-1.762c1.867,0.526 4.643,3.704 5.643,0.528c-1.047,-0.8 -1.433,-2.717 -1.235,-4.233c-0.358,-0.523 -1.281,-0.481 -1.587,-1.057c0.458,-2.399 -1.604,-2.276 -1.411,-4.409c1.605,-1.506 2.841,2.232 4.233,0.353c0.226,-1.05 -1.184,-0.462 -1.058,-1.411c0.042,-0.84 -0.225,-1.988 0.529,-2.117c0.768,0.784 0.838,1.517 2.292,0.882c0.268,1.261 1.118,1.94 2.293,2.293c-0.004,0.827 -0.093,1.738 0.705,1.763c1.232,-1.528 2.126,-3.476 1.587,-5.643c-0.408,-1.64 -2.621,-3.538 -0.529,-4.761c0.958,-0.134 1.429,0.217 2.293,0.176c1.094,-1.223 -0.558,-2.388 -0.353,-3.175c0.924,0.33 1.818,0.065 2.469,-0.352c0.156,-0.997 -0.982,-0.971 -0.529,-1.764c0.673,-0.091 1.207,-0.321 1.587,-0.705c0.12,-0.644 0.246,-1.283 0.176,-2.116c0.414,-0.409 0.88,-0.708 1.235,-1.234c0.506,-0.752 0.492,-2.295 1.587,-2.47c0.901,1.452 1.271,3.432 2.292,4.762c-0.037,0.844 -1.095,0.668 -0.881,1.763c0.56,1.322 1.535,2.227 2.645,2.999c0.829,0.346 0.697,-1.168 1.234,-0.53c-0.153,2.492 -2.396,2.895 -3.879,4.056c0.52,0.831 1.162,1.543 2.292,1.764c1.288,-0.436 1.693,-2.631 3.527,-1.94c0.269,0.787 -1.028,1.33 -0.352,2.645c-0.986,0.126 -1.802,0.98 -1.235,2.117c0.403,0.749 1.523,-0.261 1.94,0.528c-0.117,1.688 -0.956,2.455 -0.882,3.88c0.935,0.319 2.185,-0.181 3.528,0c0.479,-0.804 2.879,-1.737 3.703,-0.529c-0.779,1.75 -2.542,2.514 -4.056,3.527c-0.232,0.533 -0.121,1.408 -0.353,1.94c-1.244,-0.938 -2.016,-0.128 -2.822,0.706c0.809,0.798 0.98,1.342 1.059,2.645c1.944,-0.199 4.668,0.349 6.172,1.587c0,0.823 0,1.646 0,2.469c1.788,0.816 4.692,-0.573 5.819,0.882c-0.609,0.625 -0.741,1.726 -2.292,1.411c-0.94,1.293 -2.694,1.773 -4.409,2.292c-0.064,1.122 0.862,1.255 1.234,1.94c1.146,-0.645 2.747,-0.211 3.88,0.529c-0.052,2.181 -2.048,2.419 -2.821,3.88c-0.425,0.072 -0.384,-0.323 -0.882,-0.176c0.005,2.678 3.187,3.892 5.114,2.115c1.352,1.411 4.343,1.185 5.82,2.469c0.157,2.053 -0.217,3.271 -1.764,3.704c-1.321,0.37 -3.434,-0.362 -4.938,0c-0.848,0.204 -0.836,1.103 -1.763,0.882c-1.056,-0.013 -1.012,-1.215 -2.116,-0.706c-0.33,0.644 0.104,1.209 0.352,1.764c1.24,0.762 3.119,0.075 4.762,0.176c0.588,0.569 0.017,1.235 0.353,1.94c1.789,0.032 2.369,1.276 3.879,1.587c0.027,1.149 0.697,1.656 1.235,2.292c0.025,2.142 0.287,4.521 -1.059,5.291c0.766,1.292 2.868,1.248 3.704,2.469c0.003,0.288 0.997,-0.283 1.235,0.177c2.164,0.363 0.149,4.906 2.292,5.29c0.868,-0.895 -0.045,-3.572 0.529,-4.761c0.542,-0.341 1.384,-0.382 1.764,-0.883c0.075,-1.119 -0.11,-2.767 0,-3.35c0.717,-0.635 1.039,-1.665 1.411,-2.646c0.637,-0.286 1.845,0.273 2.645,-0.175c0.377,-0.446 -0.141,-1.788 0.529,-1.94c2.452,-0.08 3.197,-9.739 4.173,-8.495c1.12,0.116 4.238,9.253 4.821,9.905c-0.075,0.998 -0.358,1.931 0.176,2.647c1.936,-0.058 3.15,0.541 2.999,2.115c-0.094,0.967 -1.239,1.242 -1.235,2.116c0.006,1.513 1.568,1.899 2.998,2.469c-0.232,2.466 1.668,2.8 1.235,5.466c-0.308,0.458 -1.205,0.326 -1.058,1.235c1.279,0.569 3.757,0.098 2.998,2.468c-0.356,1.11 -2.088,0.689 -2.117,1.941c-0.025,1.067 1.987,1.322 2.293,2.469c0.419,1.576 -0.334,1.59 -0.529,3.35c1.764,-0.004 1.181,1.387 2.469,1.587c3.03,0.474 2.427,-4.364 2.997,-5.995c1.037,-0.103 1.636,0.993 2.645,0.352c0.331,-1.359 -1.67,-2.619 -1.41,-4.056c0.147,-0.816 1.424,-1.919 2.116,-1.94c1.237,-0.038 0.651,1.087 2.116,1.058c1.204,-1.042 -0.161,-2.176 0,-3.703c2.32,-1.147 2.467,-4.468 4.762,-5.643c1.018,0.507 0.989,1.984 1.058,2.998c0.1,0.899 1.41,0.59 1.411,1.586c-0.147,0.736 -1.367,0.734 -0.882,1.588c0.663,0.473 1.646,-0.259 1.94,0.353c-0.007,1.137 -0.164,2.735 0.352,3.879c1.077,0.049 2.002,-1.762 2.822,-0.352c-0.309,1.984 -2.866,1.719 -2.822,4.056c0.613,0.563 1.969,0.383 2.822,0.705c0.188,0.718 -0.127,1.026 0.176,1.765c0.865,0.287 2.173,-0.674 2.469,0.705c-0.672,0.62 -1.863,0.722 -1.939,1.939c0.376,0.623 1.786,0.212 1.586,1.41c-1.022,0.04 -1.873,1.847 -0.705,2.47c1.506,0.213 0.618,-1.969 1.588,-2.293c0.724,-0.597 1.621,0.65 2.116,-0.177c-0.123,-1.716 -1.587,-2.974 -1.411,-4.408c1.002,0.003 0.973,-1.025 1.939,-1.058c0.872,0.172 1.612,1.266 2.47,0.882c0.32,-1.462 -1.91,-3.556 0.705,-4.056c0.955,-1.632 1.303,-3.87 3.174,-4.585c1.309,1.372 0.632,3.735 2.293,4.585c0.059,0.693 -1.098,0.754 -0.529,1.411c0.499,0.184 1.21,-0.291 1.234,0c0.666,0.773 0.066,1.825 0.529,2.821c0.352,0.756 1.12,0.608 1.235,1.411c0.162,1.142 -0.916,1.484 -1.058,2.821c0.478,0.228 0.979,0.432 1.763,0.353c0.036,1.786 2.457,1.187 2.645,2.821c-0.368,0.337 -0.842,0.57 -1.41,0.706c1.4,0.985 0.994,2.377 0.176,3.703c1.03,0.558 2.691,0.484 2.998,1.764c-0.644,1.369 -2.262,1.162 -2.998,2.117c1.892,1.927 4.192,-0.838 4.585,-2.645c0.606,-0.078 0.989,0.069 1.411,0.176c0.039,2.233 1.714,3.438 1.234,5.643c0.313,0.689 1.236,-0.034 1.588,0.353c0.107,1.096 -1.649,1.105 -1.235,1.939c2.837,0.368 2.441,3.01 2.998,5.467c2.406,0.173 1.447,-3.021 2.998,-3.703c0.139,-1.021 -0.668,-1.095 -0.529,-2.116c0.356,-1.168 1.64,-0.635 2.645,-0.882c-0.153,-2.387 1.903,-2.565 2.116,-4.585c0.292,-0.295 1.036,-0.141 1.587,-0.176c0.514,1.867 1.929,3.674 1.764,5.643c0.515,0.39 1.578,-0.421 1.587,0.705c0.115,0.996 -0.996,0.766 -1.058,1.588c1.778,0.926 2.553,2.854 2.469,5.642c0.672,0.505 1.903,0.447 1.94,1.587c-0.165,0.775 -1.256,0.626 -1.94,0.882c0.945,1.113 2.57,1.545 2.646,3.527c1.233,0.412 0.695,2.597 2.645,2.293c0.391,-2.317 2.065,-4.078 3.526,-5.82c1.633,0.884 1.069,3.009 2.469,4.232c-0.017,0.724 -0.034,1.447 0.177,1.941c0.636,0.37 1.259,-0.544 1.764,0.176c-0.78,2.386 1.206,5.329 2.998,5.819c0,0 134.134,31.164 201.04,-0.528c0,-73.716 0,-81.429 0,-155.145l-397.32,0Z" style="fill:#29490f;"/><path d="M62.235,367.465c0.183,0 0.359,-0.019 0.527,-0.054c0.168,-0.038 0.316,-0.096 0.444,-0.18c0.128,-0.086 0.23,-0.199 0.306,-0.344c0.076,-0.144 0.114,-0.33 0.114,-0.555c0,-0.441 -0.124,-0.755 -0.372,-0.943c-0.248,-0.189 -0.576,-0.283 -0.983,-0.283l-2.051,0l0,2.359l2.015,0Zm-0.106,-3.64c0.336,0 0.613,-0.08 0.829,-0.241c0.216,-0.16 0.324,-0.421 0.324,-0.783c0,-0.199 -0.036,-0.363 -0.108,-0.492c-0.072,-0.129 -0.168,-0.228 -0.288,-0.301c-0.12,-0.072 -0.258,-0.121 -0.414,-0.15c-0.157,-0.027 -0.319,-0.041 -0.487,-0.041l-1.765,0l0,2.008l1.909,0Zm0.239,-3.469c0.407,0 0.779,0.035 1.115,0.107c0.336,0.073 0.624,0.19 0.864,0.354c0.24,0.164 0.425,0.383 0.557,0.654c0.133,0.272 0.199,0.608 0.199,1.008c0,0.432 -0.098,0.793 -0.294,1.08c-0.196,0.289 -0.485,0.523 -0.868,0.709c0.527,0.15 0.919,0.418 1.179,0.797c0.259,0.381 0.389,0.84 0.389,1.375c0,0.433 -0.084,0.807 -0.252,1.123c-0.168,0.316 -0.394,0.574 -0.678,0.773c-0.284,0.202 -0.607,0.35 -0.971,0.446c-0.364,0.095 -0.738,0.144 -1.122,0.144l-4.149,0l0,-8.57l4.031,0Z" style="fill:#710a0b;fill-rule:nonzero;"/><path d="M75.531,364.231c0.432,0 0.756,-0.096 0.972,-0.289c0.216,-0.192 0.324,-0.504 0.324,-0.938c0,-0.416 -0.108,-0.716 -0.324,-0.906c-0.216,-0.187 -0.54,-0.281 -0.972,-0.281l-2.064,0l0,2.414l2.064,0Zm0.672,-3.875c0.383,0 0.729,0.06 1.037,0.185c0.308,0.123 0.572,0.293 0.792,0.51c0.22,0.217 0.387,0.467 0.504,0.75c0.115,0.283 0.174,0.59 0.174,0.918c0,0.504 -0.106,0.94 -0.318,1.307c-0.212,0.369 -0.558,0.648 -1.037,0.84l0,0.025c0.231,0.063 0.423,0.162 0.576,0.293c0.152,0.133 0.276,0.289 0.371,0.469c0.096,0.179 0.166,0.379 0.21,0.594c0.044,0.216 0.074,0.433 0.091,0.65c0.007,0.135 0.015,0.295 0.024,0.478c0.007,0.186 0.021,0.373 0.041,0.567c0.021,0.191 0.052,0.373 0.097,0.545c0.044,0.172 0.11,0.318 0.197,0.439l-1.883,0c-0.103,-0.273 -0.168,-0.597 -0.191,-0.972c-0.025,-0.377 -0.06,-0.739 -0.108,-1.082c-0.064,-0.45 -0.2,-0.778 -0.408,-0.985c-0.208,-0.209 -0.548,-0.312 -1.02,-0.312l-1.885,0l0,3.351l-1.882,0l0,-8.57l4.618,0Z" style="fill:#710a0b;fill-rule:nonzero;"/><path d="M91.455,360.356l0,1.586l-4.524,0l0,1.836l4.152,0l0,1.461l-4.152,0l0,2.101l4.62,0l0,1.586l-6.503,0l0,-8.57l6.407,0Z" style="fill:#710a0b;fill-rule:nonzero;"/><path d="M104.031,360.356l0,1.586l-4.524,0l0,1.836l4.152,0l0,1.461l-4.152,0l0,2.101l4.62,0l0,1.586l-6.503,0l0,-8.57l6.407,0Z" style="fill:#710a0b;fill-rule:nonzero;"/><path d="M113.765,367.34c0.272,0 0.536,-0.045 0.793,-0.133c0.256,-0.087 0.485,-0.234 0.685,-0.437c0.2,-0.203 0.36,-0.471 0.48,-0.797c0.12,-0.328 0.18,-0.728 0.18,-1.201c0,-0.432 -0.042,-0.82 -0.126,-1.17c-0.084,-0.348 -0.222,-0.645 -0.414,-0.893c-0.193,-0.248 -0.447,-0.437 -0.763,-0.57c-0.317,-0.131 -0.707,-0.197 -1.171,-0.197l-1.346,0l0,5.398l1.682,0Zm0.132,-6.984c0.552,0 1.066,0.088 1.542,0.264c0.477,0.175 0.889,0.439 1.237,0.793c0.348,0.351 0.62,0.791 0.816,1.32c0.196,0.527 0.294,1.148 0.294,1.859c0,0.625 -0.08,1.201 -0.24,1.729c-0.16,0.529 -0.402,0.984 -0.726,1.369c-0.324,0.383 -0.728,0.685 -1.213,0.906c-0.483,0.219 -1.054,0.33 -1.71,0.33l-3.697,0l0,-8.57l3.697,0Z" style="fill:#710a0b;fill-rule:nonzero;"/><rect x="123.892" y="360.356" width="1.883" height="8.57" style="fill:#710a0b;fill-rule:nonzero;"/><path d="M134.103,360.356l3.574,5.748l0.024,0l0,-5.748l1.765,0l0,8.57l-1.882,0l-3.562,-5.738l-0.024,0l0,5.738l-1.766,0l0,-8.57l1.871,0Z" style="fill:#710a0b;fill-rule:nonzero;"/><path d="M151.002,368.856c-0.408,0.172 -0.82,0.258 -1.237,0.258c-0.657,0 -1.247,-0.116 -1.772,-0.342c-0.524,-0.229 -0.967,-0.543 -1.327,-0.941c-0.36,-0.401 -0.636,-0.872 -0.829,-1.411c-0.191,-0.539 -0.288,-1.121 -0.288,-1.746c0,-0.638 0.097,-1.232 0.288,-1.781c0.192,-0.547 0.468,-1.025 0.828,-1.434c0.359,-0.408 0.801,-0.726 1.325,-0.959c0.524,-0.232 1.114,-0.347 1.77,-0.347c0.441,0 0.866,0.066 1.279,0.197c0.412,0.133 0.784,0.326 1.116,0.584c0.332,0.256 0.606,0.572 0.822,0.947c0.216,0.377 0.348,0.809 0.396,1.297l-1.8,0c-0.113,-0.48 -0.328,-0.84 -0.648,-1.08c-0.321,-0.24 -0.708,-0.359 -1.165,-0.359c-0.424,0 -0.784,0.082 -1.08,0.246c-0.296,0.164 -0.536,0.383 -0.72,0.658c-0.184,0.277 -0.318,0.59 -0.402,0.941c-0.084,0.352 -0.126,0.717 -0.126,1.092c0,0.36 0.042,0.709 0.127,1.049c0.084,0.34 0.217,0.647 0.402,0.918c0.185,0.271 0.425,0.49 0.721,0.654c0.297,0.164 0.657,0.246 1.082,0.246c0.625,0 1.108,-0.158 1.448,-0.472c0.341,-0.317 0.539,-0.774 0.596,-1.371l-1.897,0l0,-1.407l3.6,0l0,4.629l-1.199,0l-0.192,-0.972c-0.337,0.431 -0.709,0.734 -1.118,0.906Z" style="fill:#710a0b;fill-rule:nonzero;"/><path d="M160.037,363.807c0.111,-0.26 0.263,-0.486 0.455,-0.678c0.192,-0.193 0.419,-0.345 0.678,-0.457c0.26,-0.113 0.538,-0.168 0.834,-0.168c0.296,0 0.575,0.055 0.834,0.168c0.26,0.112 0.488,0.264 0.684,0.457c0.196,0.192 0.351,0.418 0.462,0.678c0.112,0.26 0.168,0.539 0.168,0.836c0,0.295 -0.056,0.574 -0.168,0.834c-0.111,0.26 -0.266,0.488 -0.462,0.686c-0.196,0.195 -0.424,0.349 -0.684,0.462c-0.259,0.112 -0.538,0.168 -0.834,0.168c-0.296,0 -0.574,-0.056 -0.834,-0.168c-0.259,-0.113 -0.486,-0.267 -0.678,-0.462c-0.192,-0.198 -0.344,-0.426 -0.455,-0.686c-0.113,-0.26 -0.168,-0.539 -0.168,-0.834c0,-0.297 0.055,-0.576 0.168,-0.836Z" style="fill:#710a0b;fill-rule:nonzero;"/><path d="M174.542,367.465c0.184,0 0.36,-0.019 0.528,-0.054c0.168,-0.038 0.316,-0.096 0.444,-0.18c0.128,-0.086 0.23,-0.199 0.306,-0.344c0.076,-0.144 0.114,-0.33 0.114,-0.555c0,-0.441 -0.124,-0.755 -0.372,-0.943c-0.248,-0.189 -0.576,-0.283 -0.984,-0.283l-2.051,0l0,2.359l2.015,0Zm-0.105,-3.64c0.336,0 0.612,-0.08 0.829,-0.241c0.216,-0.16 0.324,-0.421 0.324,-0.783c0,-0.199 -0.036,-0.363 -0.108,-0.492c-0.072,-0.129 -0.169,-0.228 -0.289,-0.301c-0.12,-0.072 -0.258,-0.121 -0.414,-0.15c-0.156,-0.027 -0.318,-0.041 -0.487,-0.041l-1.765,0l0,2.008l1.91,0Zm0.238,-3.469c0.408,0 0.78,0.035 1.116,0.107c0.335,0.073 0.624,0.19 0.863,0.354c0.24,0.164 0.426,0.383 0.558,0.654c0.132,0.272 0.198,0.608 0.198,1.008c0,0.432 -0.098,0.793 -0.293,1.08c-0.196,0.289 -0.485,0.523 -0.868,0.709c0.526,0.15 0.919,0.418 1.178,0.797c0.26,0.381 0.389,0.84 0.389,1.375c0,0.433 -0.084,0.807 -0.252,1.123c-0.168,0.316 -0.393,0.574 -0.677,0.773c-0.284,0.202 -0.608,0.35 -0.971,0.446c-0.364,0.095 -0.738,0.144 -1.122,0.144l-4.149,0l0,-8.57l4.03,0Z" style="fill:#710a0b;fill-rule:nonzero;"/><path d="M185.526,365.725c0.084,0.34 0.219,0.647 0.403,0.918c0.184,0.271 0.425,0.49 0.721,0.654c0.297,0.164 0.657,0.246 1.082,0.246c0.425,0 0.785,-0.082 1.082,-0.246c0.296,-0.164 0.537,-0.383 0.721,-0.654c0.184,-0.271 0.319,-0.578 0.403,-0.918c0.084,-0.34 0.126,-0.689 0.126,-1.049c0,-0.375 -0.042,-0.74 -0.126,-1.092c-0.084,-0.351 -0.219,-0.664 -0.403,-0.941c-0.184,-0.275 -0.425,-0.494 -0.721,-0.658c-0.297,-0.164 -0.657,-0.246 -1.082,-0.246c-0.425,0 -0.785,0.082 -1.082,0.246c-0.296,0.164 -0.537,0.383 -0.721,0.658c-0.184,0.277 -0.319,0.59 -0.403,0.941c-0.084,0.352 -0.126,0.717 -0.126,1.092c0,0.36 0.042,0.709 0.126,1.049Zm-1.721,-2.832c0.193,-0.547 0.468,-1.025 0.829,-1.434c0.36,-0.408 0.802,-0.726 1.326,-0.959c0.525,-0.232 1.116,-0.347 1.772,-0.347c0.664,0 1.257,0.115 1.777,0.347c0.52,0.233 0.961,0.551 1.321,0.959c0.36,0.409 0.636,0.887 0.829,1.434c0.192,0.549 0.288,1.143 0.288,1.781c0,0.625 -0.096,1.207 -0.288,1.746c-0.193,0.539 -0.469,1.01 -0.829,1.411c-0.36,0.398 -0.801,0.712 -1.321,0.941c-0.52,0.226 -1.113,0.342 -1.777,0.342c-0.656,0 -1.247,-0.116 -1.772,-0.342c-0.524,-0.229 -0.966,-0.543 -1.326,-0.941c-0.361,-0.401 -0.636,-0.872 -0.829,-1.411c-0.192,-0.539 -0.288,-1.121 -0.288,-1.746c0,-0.638 0.096,-1.232 0.288,-1.781Z" style="fill:#710a0b;fill-rule:nonzero;"/><path d="M202.408,365.614l-1.08,-3.147l-0.024,0l-1.116,3.147l2.22,0Zm-0.108,-5.258l3.203,8.57l-1.955,0l-0.648,-1.906l-3.204,0l-0.672,1.906l-1.897,0l3.241,-8.57l1.932,0Z" style="fill:#710a0b;fill-rule:nonzero;"/><path d="M214.994,364.231c0.432,0 0.756,-0.096 0.972,-0.289c0.216,-0.192 0.324,-0.504 0.324,-0.938c0,-0.416 -0.108,-0.716 -0.324,-0.906c-0.216,-0.187 -0.54,-0.281 -0.972,-0.281l-2.063,0l0,2.414l2.063,0Zm0.672,-3.875c0.384,0 0.73,0.06 1.038,0.185c0.307,0.123 0.571,0.293 0.791,0.51c0.22,0.217 0.388,0.467 0.504,0.75c0.116,0.283 0.174,0.59 0.174,0.918c0,0.504 -0.106,0.94 -0.318,1.307c-0.212,0.369 -0.558,0.648 -1.037,0.84l0,0.025c0.232,0.063 0.424,0.162 0.576,0.293c0.152,0.133 0.276,0.289 0.372,0.469c0.096,0.179 0.166,0.379 0.21,0.594c0.044,0.216 0.074,0.433 0.09,0.65c0.008,0.135 0.016,0.295 0.024,0.478c0.008,0.186 0.022,0.373 0.042,0.567c0.02,0.191 0.052,0.373 0.096,0.545c0.044,0.172 0.11,0.318 0.198,0.439l-1.884,0c-0.103,-0.273 -0.167,-0.597 -0.191,-0.972c-0.024,-0.377 -0.06,-0.739 -0.108,-1.082c-0.064,-0.45 -0.2,-0.778 -0.408,-0.985c-0.208,-0.209 -0.548,-0.312 -1.02,-0.312l-1.884,0l0,3.351l-1.883,0l0,-8.57l4.618,0Z" style="fill:#710a0b;fill-rule:nonzero;"/><path d="M228.077,367.34c0.272,0 0.536,-0.045 0.792,-0.133c0.256,-0.087 0.485,-0.234 0.685,-0.437c0.2,-0.203 0.361,-0.471 0.481,-0.797c0.12,-0.328 0.18,-0.728 0.18,-1.201c0,-0.432 -0.042,-0.82 -0.127,-1.17c-0.084,-0.348 -0.222,-0.645 -0.414,-0.893c-0.192,-0.248 -0.446,-0.437 -0.762,-0.57c-0.317,-0.131 -0.707,-0.197 -1.172,-0.197l-1.345,0l0,5.398l1.682,0Zm0.131,-6.984c0.553,0 1.067,0.088 1.543,0.264c0.476,0.175 0.888,0.439 1.236,0.793c0.348,0.351 0.62,0.791 0.817,1.32c0.196,0.527 0.294,1.148 0.294,1.859c0,0.625 -0.08,1.201 -0.241,1.729c-0.159,0.529 -0.401,0.984 -0.726,1.369c-0.324,0.383 -0.728,0.685 -1.212,0.906c-0.484,0.219 -1.054,0.33 -1.711,0.33l-3.696,0l0,-8.57l3.696,0Z" style="fill:#710a0b;fill-rule:nonzero;"/><rect x="238.204" y="360.356" width="1.882" height="8.57" style="fill:#710a0b;fill-rule:nonzero;"/><path d="M248.415,360.356l3.574,5.748l0.023,0l0,-5.748l1.766,0l0,8.57l-1.883,0l-3.562,-5.738l-0.024,0l0,5.738l-1.766,0l0,-8.57l1.872,0Z" style="fill:#710a0b;fill-rule:nonzero;"/><path d="M265.314,368.856c-0.409,0.172 -0.821,0.258 -1.237,0.258c-0.657,0 -1.247,-0.116 -1.772,-0.342c-0.524,-0.229 -0.967,-0.543 -1.327,-0.941c-0.36,-0.401 -0.637,-0.872 -0.829,-1.411c-0.192,-0.539 -0.288,-1.121 -0.288,-1.746c0,-0.638 0.096,-1.232 0.288,-1.781c0.191,-0.547 0.468,-1.025 0.827,-1.434c0.359,-0.408 0.802,-0.726 1.325,-0.959c0.525,-0.232 1.115,-0.347 1.771,-0.347c0.439,0 0.866,0.066 1.278,0.197c0.411,0.133 0.783,0.326 1.115,0.584c0.332,0.256 0.607,0.572 0.823,0.947c0.215,0.377 0.347,0.809 0.396,1.297l-1.801,0c-0.111,-0.48 -0.328,-0.84 -0.647,-1.08c-0.32,-0.24 -0.708,-0.359 -1.164,-0.359c-0.424,0 -0.784,0.082 -1.08,0.246c-0.296,0.164 -0.536,0.383 -0.72,0.658c-0.185,0.277 -0.318,0.59 -0.402,0.941c-0.084,0.352 -0.126,0.717 -0.126,1.092c0,0.36 0.042,0.709 0.126,1.049c0.084,0.34 0.218,0.647 0.402,0.918c0.185,0.271 0.425,0.49 0.722,0.654c0.296,0.164 0.657,0.246 1.082,0.246c0.625,0 1.107,-0.158 1.448,-0.472c0.34,-0.317 0.539,-0.774 0.595,-1.371l-1.896,0l0,-1.407l3.599,0l0,4.629l-1.199,0l-0.193,-0.972c-0.336,0.431 -0.708,0.734 -1.116,0.906Z" style="fill:#710a0b;fill-rule:nonzero;"/><path d="M274.348,363.807c0.111,-0.26 0.264,-0.486 0.456,-0.678c0.192,-0.193 0.418,-0.345 0.678,-0.457c0.26,-0.113 0.538,-0.168 0.834,-0.168c0.296,0 0.574,0.055 0.834,0.168c0.26,0.112 0.488,0.264 0.683,0.457c0.197,0.192 0.351,0.418 0.462,0.678c0.113,0.26 0.168,0.539 0.168,0.836c0,0.295 -0.055,0.574 -0.168,0.834c-0.111,0.26 -0.265,0.488 -0.462,0.686c-0.195,0.195 -0.423,0.349 -0.683,0.462c-0.26,0.112 -0.538,0.168 -0.834,0.168c-0.296,0 -0.574,-0.056 -0.834,-0.168c-0.26,-0.113 -0.486,-0.267 -0.678,-0.462c-0.192,-0.198 -0.345,-0.426 -0.456,-0.686c-0.112,-0.26 -0.168,-0.539 -0.168,-0.834c0,-0.297 0.056,-0.576 0.168,-0.836Z" style="fill:#710a0b;fill-rule:nonzero;"/><path d="M284.286,361.942l0,-1.586l7.019,0l0,1.586l-2.568,0l0,6.984l-1.883,0l0,-6.984l-2.568,0Z" style="fill:#710a0b;fill-rule:nonzero;"/><path d="M301.034,364.231c0.431,0 0.756,-0.096 0.971,-0.289c0.216,-0.192 0.325,-0.504 0.325,-0.938c0,-0.416 -0.109,-0.716 -0.325,-0.906c-0.215,-0.187 -0.54,-0.281 -0.971,-0.281l-2.064,0l0,2.414l2.064,0Zm0.672,-3.875c0.383,0 0.729,0.06 1.037,0.185c0.308,0.123 0.572,0.293 0.792,0.51c0.219,0.217 0.387,0.467 0.504,0.75c0.116,0.283 0.173,0.59 0.173,0.918c0,0.504 -0.106,0.94 -0.317,1.307c-0.213,0.369 -0.559,0.648 -1.038,0.84l0,0.025c0.232,0.063 0.425,0.162 0.576,0.293c0.152,0.133 0.276,0.289 0.372,0.469c0.096,0.179 0.166,0.379 0.21,0.594c0.044,0.216 0.074,0.433 0.09,0.65c0.009,0.135 0.017,0.295 0.024,0.478c0.008,0.186 0.022,0.373 0.042,0.567c0.02,0.191 0.052,0.373 0.096,0.545c0.044,0.172 0.11,0.318 0.198,0.439l-1.882,0c-0.105,-0.273 -0.168,-0.597 -0.193,-0.972c-0.023,-0.377 -0.059,-0.739 -0.107,-1.082c-0.065,-0.45 -0.2,-0.778 -0.408,-0.985c-0.208,-0.209 -0.548,-0.312 -1.021,-0.312l-1.884,0l0,3.351l-1.883,0l0,-8.57l4.619,0Z" style="fill:#710a0b;fill-rule:nonzero;"/><path d="M314.931,365.614l-1.08,-3.147l-0.024,0l-1.116,3.147l2.22,0Zm-0.108,-5.258l3.204,8.57l-1.956,0l-0.648,-1.906l-3.204,0l-0.672,1.906l-1.896,0l3.24,-8.57l1.932,0Z" style="fill:#710a0b;fill-rule:nonzero;"/><rect x="323.571" y="360.356" width="1.883" height="8.57" style="fill:#710a0b;fill-rule:nonzero;"/><path d="M333.782,360.356l3.574,5.748l0.023,0l0,-5.748l1.766,0l0,8.57l-1.883,0l-3.562,-5.738l-0.024,0l0,5.738l-1.765,0l0,-8.57l1.871,0Z" style="fill:#710a0b;fill-rule:nonzero;"/><rect x="345.603" y="360.356" width="1.883" height="8.57" style="fill:#710a0b;fill-rule:nonzero;"/><path d="M355.814,360.356l3.574,5.748l0.024,0l0,-5.748l1.765,0l0,8.57l-1.883,0l-3.561,-5.738l-0.025,0l0,5.738l-1.765,0l0,-8.57l1.871,0Z" style="fill:#710a0b;fill-rule:nonzero;"/><path d="M372.713,368.856c-0.409,0.172 -0.821,0.258 -1.237,0.258c-0.657,0 -1.247,-0.116 -1.771,-0.342c-0.525,-0.229 -0.967,-0.543 -1.328,-0.941c-0.36,-0.401 -0.636,-0.872 -0.829,-1.411c-0.192,-0.539 -0.288,-1.121 -0.288,-1.746c0,-0.638 0.096,-1.232 0.288,-1.781c0.192,-0.547 0.468,-1.025 0.827,-1.434c0.36,-0.408 0.802,-0.726 1.326,-0.959c0.524,-0.232 1.114,-0.347 1.77,-0.347c0.44,0 0.866,0.066 1.278,0.197c0.412,0.133 0.784,0.326 1.116,0.584c0.332,0.256 0.606,0.572 0.822,0.947c0.216,0.377 0.348,0.809 0.396,1.297l-1.8,0c-0.112,-0.48 -0.327,-0.84 -0.648,-1.08c-0.32,-0.24 -0.708,-0.359 -1.164,-0.359c-0.424,0 -0.784,0.082 -1.08,0.246c-0.296,0.164 -0.536,0.383 -0.72,0.658c-0.184,0.277 -0.318,0.59 -0.402,0.941c-0.084,0.352 -0.126,0.717 -0.126,1.092c0,0.36 0.042,0.709 0.126,1.049c0.084,0.34 0.219,0.647 0.403,0.918c0.184,0.271 0.424,0.49 0.721,0.654c0.297,0.164 0.657,0.246 1.082,0.246c0.625,0 1.108,-0.158 1.448,-0.472c0.341,-0.317 0.538,-0.774 0.595,-1.371l-1.896,0l0,-1.407l3.599,0l0,4.629l-1.199,0l-0.192,-0.972c-0.336,0.431 -0.708,0.734 -1.117,0.906Z" style="fill:#710a0b;fill-rule:nonzero;"/><path d="M381.747,363.807c0.111,-0.26 0.263,-0.486 0.456,-0.678c0.191,-0.193 0.418,-0.345 0.677,-0.457c0.26,-0.113 0.538,-0.168 0.834,-0.168c0.296,0 0.575,0.055 0.834,0.168c0.26,0.112 0.489,0.264 0.684,0.457c0.196,0.192 0.351,0.418 0.462,0.678c0.112,0.26 0.168,0.539 0.168,0.836c0,0.295 -0.056,0.574 -0.168,0.834c-0.111,0.26 -0.266,0.488 -0.462,0.686c-0.195,0.195 -0.424,0.349 -0.684,0.462c-0.259,0.112 -0.538,0.168 -0.834,0.168c-0.296,0 -0.574,-0.056 -0.834,-0.168c-0.259,-0.113 -0.486,-0.267 -0.677,-0.462c-0.193,-0.198 -0.345,-0.426 -0.456,-0.686c-0.113,-0.26 -0.168,-0.539 -0.168,-0.834c0,-0.297 0.055,-0.576 0.168,-0.836Z" style="fill:#710a0b;fill-rule:nonzero;"/><path d="M393.792,366.817c0.104,0.199 0.242,0.361 0.415,0.484c0.171,0.125 0.374,0.217 0.606,0.278c0.232,0.058 0.473,0.089 0.722,0.089c0.168,0 0.348,-0.013 0.541,-0.043c0.192,-0.027 0.372,-0.082 0.541,-0.162c0.168,-0.08 0.308,-0.189 0.421,-0.33c0.111,-0.14 0.168,-0.318 0.168,-0.533c0,-0.232 -0.075,-0.42 -0.222,-0.564c-0.149,-0.145 -0.343,-0.264 -0.583,-0.362c-0.239,-0.095 -0.512,-0.179 -0.816,-0.252c-0.304,-0.072 -0.612,-0.152 -0.924,-0.24c-0.321,-0.08 -0.632,-0.178 -0.937,-0.293c-0.304,-0.117 -0.576,-0.267 -0.815,-0.451c-0.241,-0.184 -0.435,-0.414 -0.583,-0.69c-0.148,-0.277 -0.222,-0.611 -0.222,-1.003c0,-0.44 0.094,-0.823 0.282,-1.147c0.188,-0.324 0.434,-0.594 0.738,-0.809c0.303,-0.216 0.647,-0.376 1.031,-0.48c0.384,-0.105 0.767,-0.156 1.151,-0.156c0.448,0 0.878,0.049 1.29,0.148c0.411,0.1 0.778,0.262 1.097,0.487c0.32,0.222 0.574,0.507 0.762,0.855c0.188,0.348 0.282,0.77 0.282,1.266l-1.82,0c-0.016,-0.256 -0.071,-0.467 -0.163,-0.635c-0.091,-0.168 -0.214,-0.301 -0.367,-0.397c-0.151,-0.095 -0.326,-0.164 -0.522,-0.205c-0.197,-0.039 -0.41,-0.058 -0.643,-0.058c-0.152,0 -0.305,0.015 -0.457,0.047c-0.151,0.033 -0.29,0.087 -0.414,0.168c-0.124,0.08 -0.226,0.181 -0.307,0.3c-0.08,0.121 -0.12,0.274 -0.12,0.457c0,0.168 0.033,0.305 0.096,0.409c0.064,0.103 0.19,0.201 0.379,0.289c0.187,0.088 0.447,0.175 0.779,0.263c0.332,0.088 0.767,0.2 1.303,0.336c0.16,0.033 0.382,0.09 0.666,0.174c0.284,0.084 0.566,0.219 0.847,0.402c0.28,0.186 0.522,0.432 0.725,0.741c0.205,0.308 0.307,0.701 0.307,1.181c0,0.393 -0.076,0.758 -0.229,1.094c-0.151,0.336 -0.377,0.627 -0.677,0.871c-0.3,0.244 -0.672,0.434 -1.116,0.57c-0.444,0.137 -0.958,0.206 -1.542,0.206c-0.471,0 -0.929,-0.059 -1.374,-0.174c-0.443,-0.117 -0.836,-0.299 -1.175,-0.547c-0.34,-0.248 -0.61,-0.565 -0.81,-0.949c-0.2,-0.383 -0.296,-0.84 -0.288,-1.368l1.82,0c0,0.288 0.052,0.532 0.157,0.733Z" style="fill:#710a0b;fill-rule:nonzero;"/><path d="M409.323,365.614l-1.08,-3.147l-0.024,0l-1.116,3.147l2.22,0Zm-0.109,-5.258l3.204,8.57l-1.956,0l-0.647,-1.906l-3.204,0l-0.672,1.906l-1.897,0l3.241,-8.57l1.931,0Z" style="fill:#710a0b;fill-rule:nonzero;"/><path d="M419.845,360.356l0,6.984l4.176,0l0,1.586l-6.059,0l0,-8.57l1.883,0Z" style="fill:#710a0b;fill-rule:nonzero;"/><path d="M436.286,360.356l0,1.586l-4.525,0l0,1.836l4.153,0l0,1.461l-4.153,0l0,2.101l4.62,0l0,1.586l-6.503,0l0,-8.57l6.408,0Z" style="fill:#710a0b;fill-rule:nonzero;"/><path d="M443.892,366.817c0.105,0.199 0.242,0.361 0.415,0.484c0.172,0.125 0.374,0.217 0.607,0.278c0.232,0.058 0.473,0.089 0.721,0.089c0.168,0 0.349,-0.013 0.541,-0.043c0.193,-0.027 0.373,-0.082 0.541,-0.162c0.168,-0.08 0.309,-0.189 0.421,-0.33c0.112,-0.14 0.168,-0.318 0.168,-0.533c0,-0.232 -0.074,-0.42 -0.222,-0.564c-0.148,-0.145 -0.342,-0.264 -0.582,-0.362c-0.24,-0.095 -0.512,-0.179 -0.816,-0.252c-0.305,-0.072 -0.612,-0.152 -0.925,-0.24c-0.32,-0.08 -0.632,-0.178 -0.936,-0.293c-0.304,-0.117 -0.576,-0.267 -0.817,-0.451c-0.239,-0.184 -0.433,-0.414 -0.582,-0.69c-0.147,-0.277 -0.221,-0.611 -0.221,-1.003c0,-0.44 0.093,-0.823 0.282,-1.147c0.187,-0.324 0.433,-0.594 0.737,-0.809c0.304,-0.216 0.648,-0.376 1.031,-0.48c0.384,-0.105 0.768,-0.156 1.152,-0.156c0.448,0 0.878,0.049 1.29,0.148c0.411,0.1 0.777,0.262 1.096,0.487c0.321,0.222 0.575,0.507 0.762,0.855c0.189,0.348 0.282,0.77 0.282,1.266l-1.82,0c-0.017,-0.256 -0.07,-0.467 -0.162,-0.635c-0.093,-0.168 -0.215,-0.301 -0.366,-0.397c-0.153,-0.095 -0.327,-0.164 -0.524,-0.205c-0.196,-0.039 -0.41,-0.058 -0.642,-0.058c-0.153,0 -0.305,0.015 -0.457,0.047c-0.153,0.033 -0.29,0.087 -0.414,0.168c-0.124,0.08 -0.227,0.181 -0.307,0.3c-0.08,0.121 -0.12,0.274 -0.12,0.457c0,0.168 0.032,0.305 0.096,0.409c0.064,0.103 0.19,0.201 0.378,0.289c0.188,0.088 0.448,0.175 0.781,0.263c0.332,0.088 0.765,0.2 1.302,0.336c0.16,0.033 0.381,0.09 0.666,0.174c0.284,0.084 0.566,0.219 0.846,0.402c0.281,0.186 0.522,0.432 0.727,0.741c0.203,0.308 0.305,0.701 0.305,1.181c0,0.393 -0.076,0.758 -0.227,1.094c-0.152,0.336 -0.379,0.627 -0.679,0.871c-0.3,0.244 -0.672,0.434 -1.115,0.57c-0.444,0.137 -0.958,0.206 -1.542,0.206c-0.472,0 -0.93,-0.059 -1.374,-0.174c-0.443,-0.117 -0.836,-0.299 -1.176,-0.547c-0.34,-0.248 -0.609,-0.565 -0.809,-0.949c-0.201,-0.383 -0.296,-0.84 -0.288,-1.368l1.82,0c0,0.288 0.052,0.532 0.156,0.733Z" style="fill:#710a0b;fill-rule:nonzero;"/><path d="M296.978,155.178c-4.157,1.331 -5.353,4.463 -6.316,7.064c-0.962,2.6 -0.982,4.165 -0.689,3.773c0.294,-0.393 0.732,-0.912 0.732,-0.912c0,0 -0.339,-0.019 -1.023,2.46c-0.682,2.48 -0.084,2.718 -0.064,2.379c0.018,-0.34 -0.051,-1.502 -0.518,1.945c-0.464,3.445 -0.929,5.665 -0.465,4.669c0.464,-0.994 0.701,-1.593 0.701,-1.593c0,0 -0.679,2.412 -0.861,4.442c-0.181,2.032 -0.683,2.481 -0.619,5.003c0.062,2.522 0.568,0.78 0.811,0.113c0.241,-0.668 -1.64,8.62 -0.97,11.244c0.669,2.623 0.686,3.509 0.937,0.256c0.25,-3.253 0.647,-4.252 1.214,-3.471c0.571,0.781 0.36,0.905 0.998,-0.761c0.636,-1.665 1.259,-1.835 1.226,1.157c0,0 1.283,-0.892 1.2,-1.559c-0.083,-0.666 -0.167,-0.25 0,-2.25c0.167,-2 0.75,-0.083 0.417,-3c-0.333,-2.916 0.833,-1.666 1.083,-3.416c0.25,-1.75 0,-1.917 -0.25,-2.584c-0.25,-0.666 -0.5,-2.667 -0.5,-3.25c0,-0.583 0,-5.333 0.5,-6.666c0.5,-1.334 2.456,-15.043 2.456,-15.043Z" style="fill:#fff;fill-rule:nonzero;"/><path d="M297.226,155.051c0.029,-0.031 0.08,-0.03 0.119,-0.045c3.839,-1.474 7.876,-3.052 13.117,-2.796c5.294,0.258 11.621,2.389 16.464,3.099c4.843,0.71 7.941,-0.968 9.556,-1.873c1.613,-0.904 0.903,-0.322 3.163,-1.485c2.26,-1.162 3.875,-0.903 5.618,-1.42c1.743,-0.516 0.903,-0.452 4.713,-2.389c3.809,-1.936 5.423,-2.71 9.168,-4.196c3.745,-1.485 6.778,-2.647 6.778,-2.647c0,0 0.196,-0.065 1.229,-0.904c1.032,-0.839 1.742,-1.549 2.26,-3.294c0.515,-1.742 0.257,-2.453 0.967,-1.161c0.71,1.291 0.065,2.97 0.065,2.97c0,0 0.322,0.259 1.033,0c0.71,-0.259 1.098,-1.613 1.548,-2.97c0.453,-1.356 0.389,-0.646 0.841,0.839c0.451,1.486 -0.388,3.035 -0.388,3.035c0,0 0.259,0.516 0.904,1.355c0.646,0.84 2.066,3.034 2.517,3.939c0.453,0.904 0.26,1.42 0.646,2.066c0.387,0.645 2.196,2.26 3.101,3.163c0.902,0.905 3.033,3.423 3.033,3.874c0,0.452 -0.645,1.872 -0.773,2.777c-0.13,0.904 -0.388,0.775 -0.905,1.162c-0.517,0.387 -2.26,0.968 -3.422,0.903c-1.161,-0.063 -1.034,-1.549 -1.034,-1.549c-0.257,-0.065 -0.838,-0.387 -1.613,-0.904c-0.775,-0.516 -2.713,-0.516 -4.004,-1.613c-1.291,-1.099 -4.067,-0.905 -4.97,-0.388c-0.905,0.516 -2.842,3.034 -4.457,5.552c-1.613,2.518 -6.713,7.555 -6.713,8.523c0,0.969 -0.582,4.842 -1.229,7.425c-0.644,2.581 -3.808,4.391 -4.453,4.712c-0.646,0.324 -0.516,2.455 -0.969,4.585c-0.451,2.13 -0.968,6.134 -1.807,11.751c-0.839,5.617 -0.388,10.33 0,10.782c0.387,0.451 1.677,2.518 1.677,2.518l-3.291,0.258c0,0 -0.13,-0.193 -0.388,-0.839c-0.259,-0.646 -2.13,-1.356 -2.13,-1.356c0,0 0.259,-4.261 0.451,-7.166c0.194,-2.905 -0.128,-9.105 -0.128,-8.781c0,0.322 -3.423,7.683 -3.423,8.715c0,1.033 -1.097,4.649 -0.129,5.941c0.969,1.292 1.549,3.164 1.549,3.164l-3.55,-0.194c0,0 -0.13,-0.323 -0.516,-1.679c-0.389,-1.356 -1.486,-2.196 -1.356,-2.776c0.128,-0.581 2.518,-8.394 2.582,-9.104c0.065,-0.71 -0.452,-2.066 -0.195,-3.421c0.26,-1.356 1.422,-11.945 1.034,-11.752c-0.388,0.194 -3.874,-0.064 -11.17,-1.226c-7.296,-1.161 -13.881,-4.907 -15.366,-6.069c-1.484,-1.163 -1.873,0.58 -2.711,1.807c-0.841,1.227 -2.841,6.264 -3.487,9.557c-0.647,3.292 -2.39,8.845 -2.196,11.04c0.194,2.195 1.355,9.039 2.13,9.943c0.777,0.904 1.937,3.099 1.937,3.099l-4.196,-0.065c0,0 -0.708,0.129 -0.452,-0.711c0.258,-0.839 -1.355,-2.001 -1.355,-2.001l-2.907,-14.849l-1.613,2.711c0,0 -0.581,11.557 0.323,12.267c0.905,0.712 1.616,3.164 1.616,3.164l-3.424,0c0,0 0.064,-0.322 -0.452,-1.484c-0.517,-1.163 -1.356,-0.84 -1.356,-0.84c0,0 -0.258,-1.291 -0.129,-2.388c0.128,-1.098 0,-11.429 -0.129,-14.27c0,0 -0.612,-5.241 0.361,-6.019c0.971,-0.777 1.846,-1.554 2.428,-3.303c0.584,-1.749 -7.092,-11.658 -3.789,-20.597c0,0 0.298,-2.628 3.647,-6.172Z" style="fill:#fff;fill-rule:nonzero;"/><path d="M364.227,191.248c-0.217,0.042 -0.99,-0.462 -0.688,0.368c0.3,0.83 -0.17,1.471 2.123,1.061c2.293,-0.41 0.957,-0.794 1.671,-2.837c0.713,-2.044 0.669,-3.718 0.781,-4.769c0.112,-1.051 1.753,-2.351 1.753,-2.351c0,0 -0.659,1.484 -1.037,3.03c-0.378,1.546 0.13,4.954 0.374,6.205c0.242,1.25 0.301,0.829 -0.628,2.669c-0.929,1.84 -3.394,3.651 -3.394,3.651c0,0 -0.628,2.67 -0.747,3.441c-0.119,0.772 -2.556,6.353 -3.221,7.557c-0.667,1.205 -0.445,1.687 -0.02,1.886c0.424,0.198 0.994,0.602 1.74,-0.186c0.747,-0.788 0.813,-0.93 0.852,-2.117c0.039,-1.188 2.295,-5.648 2.836,-6.29c0.542,-0.642 0.822,-0.58 1.887,-2.564c1.066,-1.983 5.225,-5.724 5.225,-5.724c0,0 0.004,2.793 -0.286,5.035c-0.289,2.242 0.342,2.365 0.86,3.469c0.519,1.103 2.12,6.228 2.498,7.335c0.379,1.107 0.552,2.359 0.552,2.359l2.527,0.492c0,0 -0.458,-1.454 -0.62,-2.288c-0.161,-0.834 -2.443,-7.895 -2.258,-8.807c0.185,-0.914 -0.024,-3.561 -0.053,-4.678c-0.03,-1.116 0.602,-6.23 1.217,-6.735c0.615,-0.504 1.028,-0.725 1.388,-0.316c0.36,0.41 2.48,1.331 5.491,1.67c3.011,0.34 5.514,-0.076 5.514,-0.076c0,0 0.94,1.231 1.103,2.135c0.165,0.904 0.069,5.235 -0.037,6.495c-0.107,1.259 -0.3,4.476 -0.616,5.742c-0.314,1.264 -0.708,4.906 -0.7,5.185c0.008,0.28 1.281,0.943 2.042,0.644c0.759,-0.299 0.375,-1.616 0.289,-2.242c-0.086,-0.626 0.061,-3.004 0.247,-3.847c0.189,-0.842 1.363,-3.946 1.542,-5.068c0.18,-1.121 0.361,-4.827 0.398,-6.085c0.037,-1.258 0.413,-0.22 0.413,-0.22l0.707,0.331c0.707,0.33 4.344,3.235 4.564,3.579c0.218,0.343 0.313,3.902 0.087,5.932c-0.226,2.032 -0.061,5.588 0.106,6.701c0.169,1.113 1.291,1.222 1.291,1.222c0,0 0.794,-4.28 0.843,-5.049c0.049,-0.769 -0.581,-6.13 -0.532,-6.899c0.05,-0.769 0.325,-0.916 0.223,-2.17c-0.104,-1.254 -0.105,-1.254 -0.55,-2.29c-0.446,-1.035 -5.146,-4.472 -4.734,-4.692c0.414,-0.221 0.864,-1.698 1.385,-3.109c0.521,-1.41 0.266,-3.149 0.321,-3.709c0.055,-0.56 0.121,-0.702 0.527,-1.201c0.405,-0.5 1.604,-2.696 1.99,-3.963c0.385,-1.267 1.571,-1.298 2.201,-1.246c0.629,0.054 1.555,0.728 2.196,1.2c0.641,0.471 3.203,2.289 3.687,2.136c0.485,-0.152 -0.011,-0.418 -0.011,-0.418c0,0 0.839,0.047 1.243,-0.522c0.404,-0.569 0.081,-2.236 -0.279,-2.646c-0.36,-0.41 -2.912,-4.461 -3.073,-5.295c-0.162,-0.833 -2.225,-2.245 -2.225,-2.245c0,0 0.68,-0.716 0.603,-0.994c-0.077,-0.277 0.229,-1.891 0.229,-1.891l-1.902,2.006c0,0 -0.928,-0.745 -0.938,-1.163c-0.011,-0.418 -0.228,-0.692 -0.228,-0.692c0,0 -0.96,0.654 -0.797,1.557c0.164,0.903 0.029,1.116 0.029,1.116c0,0 -0.355,-0.27 -1.452,0.528c-1.096,0.797 -1.982,1.588 -2.535,1.813c-0.553,0.224 -1.241,0.591 -0.956,0.793c0.284,0.202 0.432,0.477 -0.118,0.841c-0.549,0.363 -0.902,0.164 -1.383,0.525c-0.478,0.362 -0.472,0.641 -0.472,0.641c0,0 0.154,0.484 -0.333,0.638c-0.484,0.152 -0.894,0.442 -0.959,0.653c-0.064,0.211 -0.256,0.845 -0.808,1.139c-0.55,0.294 -1.248,0.312 -1.24,0.591c0.007,0.279 -0.285,-0.202 -2.633,0.768c-0.267,0.11 -1.515,0.809 -3.526,1.351c-2.01,0.542 -5.815,-0.754 -8.27,-1.178c-2.455,-0.424 -3.943,1.361 -5.885,1.901c-1.94,0.541 -1.331,-0.174 -2.102,-0.293c-0.771,-0.119 -1.255,0.103 -1.649,1.021c0,0 -0.482,0.222 -0.815,0.86c-0.332,0.636 -0.738,1.136 -0.324,0.916c0.413,-0.221 -0.151,-0.415 -0.414,0.22c-0.262,0.636 -0.796,1.558 -0.455,1.269c0.341,-0.288 -0.072,-0.068 -0.4,0.708c-0.329,0.778 0.299,0.761 0.36,0.411c0.061,-0.351 -0.746,0.857 -0.947,1.141c-0.202,0.285 0.425,0.268 0.56,0.055c0.133,-0.212 -0.744,0.928 -0.806,1.209c-0.063,0.281 0.29,0.412 0.492,0.126c0.201,-0.284 -0.331,0.707 -0.527,1.202c-0.196,0.494 0.294,0.55 0.426,0.267c0.132,-0.282 -0.393,0.989 -0.81,1.069Z" style="fill:#fff;fill-rule:nonzero;"/><path d="M88.469,264.552c0,17.306 -5.339,25.407 -23.751,25.407c-6.075,0 -14.268,-2.577 -14.268,-9.941c0,-4.235 3.037,-7.549 7.364,-7.549c4.511,0 6.997,2.393 8.009,8.746c0.276,2.117 0.644,5.154 3.314,5.154c4.971,0 4.235,-11.967 4.235,-15.097l0,-38.847c0,-6.536 -1.749,-8.194 -9.758,-8.47l0,-3.037l33.876,0l0,3.037c-5.983,0.645 -9.021,0.829 -9.021,8.47l0,32.127Z" style="fill:#29490f;fill-rule:nonzero;"/><path d="M114.328,262.431c0,17.694 5.005,24.391 12.618,24.391c12.83,0 13.888,-14.733 13.888,-24.321c0,-18.188 -5.499,-24.32 -13.042,-24.32c-8.107,0 -13.464,7.19 -13.464,24.25Zm-12.266,0.634c0,-15.015 9.586,-27.634 25.307,-27.634c15.862,0 25.732,10.998 25.732,26.577c0,14.24 -9.588,27.563 -25.802,27.563c-15.368,0 -25.237,-10.997 -25.237,-26.506Z" style="fill:#29490f;fill-rule:nonzero;"/><path d="M194.973,260.175l0,-14.663c0,-4.935 -1.763,-6.486 -6.839,-6.486l0,-2.326l25.238,0l0,2.326c-5.076,0 -6.838,1.551 -6.838,6.486l0,33.979c0,4.935 1.762,6.486 6.838,6.486l0,2.326l-25.238,0l0,-2.326c5.076,0 6.839,-1.551 6.839,-6.486l0,-16.003l-18.893,0l0,16.003c0,4.935 1.762,6.486 6.838,6.486l0,2.326l-25.238,0l0,-2.326c5.076,0 6.839,-1.551 6.839,-6.486l0,-33.979c0,-4.935 -1.763,-6.486 -6.839,-6.486l0,-2.326l25.238,0l0,2.326c-5.076,0 -6.838,1.551 -6.838,6.486l0,14.663l18.893,0Z" style="fill:#29490f;fill-rule:nonzero;"/><path d="M258.769,272.582l0,-23.545c0,-5.992 -0.564,-9.376 -7.543,-10.011l0,-2.326l18.54,0l0,2.326c-6.697,1.128 -7.331,3.807 -7.331,10.011l0,39.266l-6.415,0l-28.339,-40.113l0,27.071c0,7.684 0.845,9.165 8.247,10.716l0,2.326l-19.95,0l0,-2.326c6.768,-1.058 8.037,-3.173 8.037,-9.659l0,-32.427c-1.974,-2.468 -4.935,-4.23 -8.037,-4.865l0,-2.326l17.906,0l24.885,35.882Z" style="fill:#29490f;fill-rule:nonzero;"/><path d="M347.278,276.796c0,6.443 2.301,8.469 8.929,8.469l0,3.038l-32.957,0l0,-3.038c6.629,0 8.93,-2.026 8.93,-8.469l0,-48.237l-0.183,0l-20.713,59.744l-3.315,0l-20.896,-57.904l-0.184,0l0,37.467c0,14.73 0.828,16.57 9.021,17.399l0,3.038l-23.29,0l0,-3.038c8.101,-1.565 9.482,-2.578 9.482,-17.399l0,-35.441c0,-6.905 -2.762,-8.47 -8.93,-8.47l0,-3.037l26.973,0l14.729,42.253l15.097,-42.253l26.236,0l0,3.037c-6.628,0.461 -8.929,1.474 -8.929,8.47l0,44.371Z" style="fill:#29490f;fill-rule:nonzero;"/><path d="M359.407,285.977c5.076,0 6.838,-1.551 6.838,-6.486l0,-33.979c0,-4.935 -1.762,-6.486 -6.838,-6.486l0,-2.326l42.509,0l4.441,13.183l-2.186,0.916c-4.722,-6.133 -12.054,-11.35 -20.09,-11.35c-6.275,0 -6.275,2.115 -6.275,7.332l0,13.746l1.41,0c7.05,0 10.152,-1.198 12.548,-8.318l2.75,0l0,20.373l-2.75,0c-1.903,-7.12 -5.498,-8.741 -12.407,-8.741l-1.551,0l0,14.874c0,4.089 0.423,6.839 5.429,6.839c8.741,0 16.566,-4.935 22.064,-11.351l1.904,0.987l-5.287,13.113l-42.509,0l0,-2.326Z" style="fill:#29490f;fill-rule:nonzero;"/><path d="M409.385,285.977c5.076,0 6.839,-1.551 6.839,-6.486l0,-33.979c0,-4.935 -1.763,-6.486 -6.839,-6.486l0,-2.326l25.239,0l0,2.326c-5.077,0 -6.839,1.551 -6.839,6.486l0,33.979c0,4.23 0.071,6.063 5.288,6.063c8.671,0 16.002,-5.71 21.359,-11.985l1.763,0.705l-4.371,14.029l-42.439,0l0,-2.326Z" style="fill:#29490f;fill-rule:nonzero;"/><path d="M87.392,308.67l-2.649,0.907c-3.41,-5.573 -10.374,-12.743 -17.407,-12.743c-4.804,0 -8.703,2.575 -8.703,7.59c0,5.707 5.987,7.24 10.444,8.635l4.108,1.322c8.566,2.785 16.923,6.754 16.923,17.059c0,9.541 -7.941,16.156 -17.062,16.156c-2.993,0 -5.919,-0.629 -8.774,-1.535c-1.323,-0.414 -2.158,-0.764 -3.552,-0.764c-1.182,0 -1.809,0.139 -6.197,2.229l-4.523,-16.086l2.713,-0.904c4.109,6.613 10.862,14.345 19.289,14.345c5.013,0 10.165,-3.552 10.165,-8.914c0,-5.711 -5.569,-7.453 -10.026,-8.844c-9.262,-2.994 -20.889,-6.474 -20.889,-18.314c0,-8.841 7.033,-14.691 15.598,-14.691c2.854,0 5.012,0.486 7.658,1.394c0.975,0.344 1.88,0.694 2.925,0.694c1.741,0 4.108,-1.391 5.362,-2.577l4.597,15.041Z" style="fill:#710a0b;fill-rule:nonzero;"/><path d="M132.862,295.37l3.759,13.925l-2.573,0.7c-3.343,-5.223 -9.54,-11.768 -16.227,-11.909l0,39.549c0,4.877 1.741,6.41 6.757,6.41l0,2.299l-24.929,0l0,-2.299c5.013,0 6.754,-1.533 6.754,-6.41l0,-39.549c-6.964,0.836 -12.395,6.268 -16.087,11.909l-2.573,-0.7l3.41,-13.925l41.709,0Z" style="fill:#710a0b;fill-rule:nonzero;"/><path d="M155.217,303.032l-8.287,22.349l15.25,0l-6.963,-22.349Zm21.864,32.238c1.532,5.012 2.228,8.633 8.494,8.775l0,2.299l-24.44,0l0,-2.299c4.457,-0.142 5.502,-1.047 5.502,-3.132c0,-1.325 -0.42,-2.788 -0.836,-4.041l-2.507,-8.219l-17.755,0l-1.532,4.39c-0.628,1.807 -1.394,3.899 -1.394,5.85c0,3.551 3.203,4.939 6.269,5.152l0,2.299l-18.525,0l0,-2.299c6.475,-1.812 7.87,-5.293 10.028,-11.002l13.578,-36.209l10.168,-3.275l12.95,41.711Z" style="fill:#710a0b;fill-rule:nonzero;"/><path d="M201.454,335.411c0,5.988 -0.139,8.634 7.033,8.634c6.826,0 11.909,-3.345 11.909,-12.328c0,-6.199 -2.161,-11 -14.901,-11l-4.041,0l0,14.694Zm3.97,-17.967c8.774,0 12.67,-2.922 12.67,-10.164c0,-7.246 -4.244,-9.614 -10.93,-9.614c-1.601,0 -3.759,0.213 -4.873,1.325c-0.906,1.043 -0.837,2.507 -0.837,3.759l0,14.694l3.97,0Zm-22.143,28.9l0,-2.299c5.014,0 6.755,-1.533 6.755,-6.41l0,-33.558c0,-4.876 -1.741,-6.411 -6.755,-6.411l0,-2.296l25.276,0c17.756,0 21.653,5.503 21.653,11.699c0,7.176 -7.307,10.515 -13.368,11.767l0,0.139c7.732,1.533 15.668,4.387 15.668,13.791c0,8.215 -5.988,13.578 -19.565,13.578l-29.664,0Z" style="fill:#710a0b;fill-rule:nonzero;"/><path d="M236.276,344.045c5.013,0 6.755,-1.533 6.755,-6.41l0,-33.558c0,-4.876 -1.742,-6.411 -6.755,-6.411l0,-2.296l24.929,0l0,2.296c-5.015,0 -6.755,1.535 -6.755,6.411l0,33.558c0,4.18 0.068,5.99 5.22,5.99c8.567,0 15.807,-5.64 21.1,-11.837l1.74,0.699l-4.316,13.857l-41.918,0l0,-2.299Z" style="fill:#710a0b;fill-rule:nonzero;"/><path d="M279.937,344.045c5.013,0 6.753,-1.533 6.753,-6.41l0,-33.558c0,-4.876 -1.74,-6.411 -6.753,-6.411l0,-2.296l41.986,0l4.387,13.023l-2.157,0.902c-4.666,-6.056 -11.907,-11.209 -19.847,-11.209c-6.197,0 -6.197,2.089 -6.197,7.243l0,13.578l1.393,0c6.965,0 10.028,-1.182 12.395,-8.215l2.713,0l0,20.123l-2.713,0c-1.878,-7.033 -5.43,-8.637 -12.255,-8.637l-1.533,0l0,14.694c0,4.041 0.419,6.753 5.365,6.753c8.631,0 16.361,-4.873 21.794,-11.209l1.877,0.975l-5.222,12.953l-41.986,0l0,-2.299Z" style="fill:#710a0b;fill-rule:nonzero;"/><path d="M366.286,308.67l-2.65,0.907c-3.41,-5.573 -10.372,-12.743 -17.406,-12.743c-4.806,0 -8.705,2.575 -8.705,7.59c0,5.707 5.989,7.24 10.445,8.635l4.11,1.322c8.564,2.785 16.92,6.754 16.92,17.059c0,9.541 -7.94,16.156 -17.062,16.156c-2.993,0 -5.919,-0.629 -8.772,-1.535c-1.323,-0.414 -2.158,-0.764 -3.551,-0.764c-1.187,0 -1.81,0.139 -6.198,2.229l-4.528,-16.086l2.719,-0.904c4.106,6.613 10.859,14.345 19.285,14.345c5.014,0 10.167,-3.552 10.167,-8.914c0,-5.711 -5.57,-7.453 -10.026,-8.844c-9.261,-2.994 -20.891,-6.474 -20.891,-18.314c0,-8.841 7.034,-14.691 15.599,-14.691c2.854,0 5.015,0.486 7.66,1.394c0.974,0.344 1.88,0.694 2.923,0.694c1.742,0 4.108,-1.391 5.362,-2.577l4.599,15.041Z" style="fill:#710a0b;fill-rule:nonzero;"/><path d="M385.703,340.961c0,4.149 0.522,5.12 3.549,5.12l0,1.234l-10.761,0l0,-1.234c2.989,0 3.511,-0.971 3.511,-5.12l0,-14.648c0,-4.109 -0.522,-5.119 -3.511,-5.119l0,-1.233l10.761,0l0,1.233c-3.027,0 -3.549,1.01 -3.549,5.119l0,14.648Z" style="fill:#710a0b;fill-rule:nonzero;"/><path d="M412.272,340.327l0,-14.014c0,-4.109 -0.486,-5.119 -3.476,-5.119l0,-1.233l8.67,0l0,1.233c-2.952,0 -3.475,1.01 -3.475,5.119l0,21.002l-1.271,0l-16.18,-22.758l0,16.404c0,4.149 0.485,5.12 3.512,5.12l-0.037,0l0,1.234l-8.707,0l0,-1.234c2.989,0 3.513,-0.971 3.513,-5.12l0,-14.648c0,-4.109 -0.524,-5.119 -3.513,-5.119l0,-1.233l6.502,0l14.462,20.366Z" style="fill:#710a0b;fill-rule:nonzero;"/><path d="M442.689,326.686l-0.935,0.449c-2.017,-2.652 -5.642,-6.053 -9.155,-6.053c-6.203,0 -7.959,6.688 -7.959,11.696c0,5.381 2.765,12.668 9.155,12.668c3.998,0 6.652,-2.766 8.558,-5.979l0.784,0.447c-2.017,4.411 -5.755,7.811 -10.762,7.811c-7.362,0 -12.033,-6.09 -12.033,-13.078c0,-3.4 1.121,-6.801 3.028,-9.643c1.943,-2.988 5.006,-5.455 8.781,-5.455c1.307,0 2.279,0.299 3.101,0.598c0.86,0.299 1.608,0.56 2.392,0.56c0.972,0 1.719,-0.373 2.541,-0.785l2.504,6.764Z" style="fill:#710a0b;fill-rule:nonzero;"/><path d="M448.854,343.016c1.346,0 2.392,1.084 2.392,2.43c0,1.232 -1.084,2.279 -2.392,2.279c-1.233,0 -2.317,-1.047 -2.317,-2.316c0,-1.309 1.009,-2.393 2.317,-2.393Z" style="fill:#710a0b;fill-rule:nonzero;"/></g></svg>
