<svg width="220" height="69" viewBox="0 0 1270 397" version="1.1" xmlns="http://www.w3.org/2000/svg" xmlns:xlink="http://www.w3.org/1999/xlink" xml:space="preserve" style="fill-rule:evenodd;clip-rule:evenodd;stroke-linejoin:round;stroke-miterlimit:1.41421;"><path d="M120.216,136.356c0,54.081 -16.685,79.397 -74.222,79.397c-18.985,0 -44.588,-8.053 -44.588,-31.066c0,-13.234 9.491,-23.59 23.013,-23.59c14.097,0 21.865,7.478 25.028,27.331c0.862,6.616 2.012,16.106 10.356,16.106c15.534,0 13.234,-37.397 13.234,-47.178l0,-121.397c0,-20.425 -5.465,-25.606 -30.493,-26.468l0,-9.491l105.862,0l0,9.491c-18.697,2.015 -28.19,2.59 -28.19,26.468l0,100.397Z" style="fill:#29490f;fill-rule:nonzero;"/><path d="M201.025,129.728c0,55.294 15.641,76.222 39.431,76.222c40.094,0 43.4,-46.041 43.4,-76.003c0,-56.838 -17.184,-76 -40.756,-76c-25.334,0 -42.075,22.469 -42.075,75.781Zm-38.331,1.981c0,-46.922 29.956,-86.356 79.084,-86.356c49.569,0 80.413,34.369 80.413,83.053c0,44.5 -29.963,86.135 -80.632,86.135c-48.025,0 -78.865,-34.366 -78.865,-82.832Z" style="fill:#29490f;fill-rule:nonzero;"/><path d="M453.041,122.678l0,-45.822c0,-15.422 -5.51,-20.268 -21.372,-20.268l0,-7.269l78.868,0l0,7.269c-15.862,0 -21.368,4.846 -21.368,20.268l0,106.185c0,15.421 5.506,20.268 21.368,20.268l0,7.269l-78.868,0l0,-7.269c15.862,0 21.372,-4.847 21.372,-20.268l0,-50.01l-59.041,0l0,50.01c0,15.421 5.506,20.268 21.369,20.268l0,7.269l-78.869,0l0,-7.269c15.862,0 21.372,-4.847 21.372,-20.268l0,-106.185c0,-15.422 -5.51,-20.268 -21.372,-20.268l0,-7.269l78.869,0l0,7.269c-15.863,0 -21.369,4.846 -21.369,20.268l0,45.822l59.041,0Z" style="fill:#29490f;fill-rule:nonzero;"/><path d="M652.403,161.45l0,-73.578c0,-18.725 -1.762,-29.3 -23.572,-31.284l0,-7.269l57.938,0l0,7.269c-20.928,3.524 -22.91,11.896 -22.91,31.284l0,122.706l-20.046,0l-88.56,-125.353l0,84.597c0,24.012 2.641,28.64 25.772,33.487l0,7.269l-62.344,0l0,-7.269c21.15,-3.306 25.116,-9.915 25.116,-30.184l0,-101.334c-6.169,-7.713 -15.422,-13.219 -25.116,-15.203l0,-7.269l55.957,0l77.765,112.131Z" style="fill:#29490f;fill-rule:nonzero;"/><path d="M928.994,174.619c0,20.134 7.19,26.465 27.903,26.465l0,9.494l-102.991,0l0,-9.494c20.716,0 27.906,-6.331 27.906,-26.465l0,-150.741l-0.571,0l-64.729,186.7l-10.359,0l-65.3,-180.95l-0.575,0l0,117.084c0,46.032 2.588,51.782 28.191,54.372l0,9.494l-72.782,0l0,-9.494c25.316,-4.89 29.632,-8.056 29.632,-54.372l0,-110.753c0,-21.578 -8.632,-26.468 -27.907,-26.468l0,-9.491l84.291,0l46.028,132.041l47.178,-132.041l81.988,0l0,9.491c-20.713,1.44 -27.903,4.606 -27.903,26.468l0,138.66Z" style="fill:#29490f;fill-rule:nonzero;"/><path d="M966.897,203.309c15.862,0 21.369,-4.847 21.369,-20.268l0,-106.185c0,-15.422 -5.507,-20.268 -21.369,-20.268l0,-7.269l132.84,0l13.879,41.197l-6.832,2.862c-14.756,-19.166 -37.668,-35.469 -62.781,-35.469c-19.609,0 -19.609,6.61 -19.609,22.913l0,42.956l4.406,0c22.031,0 31.725,-3.744 39.213,-25.994l8.593,0l0,63.666l-8.593,0c-5.947,-22.25 -17.182,-27.316 -38.772,-27.316l-4.847,0l0,46.482c0,12.778 1.322,21.371 16.965,21.371c27.316,0 51.769,-15.421 68.95,-35.471l5.95,3.084l-16.522,40.978l-132.84,0l0,-7.269Z" style="fill:#29490f;fill-rule:nonzero;"/><path d="M1123.08,203.309c15.863,0 21.372,-4.847 21.372,-20.268l0,-106.185c0,-15.422 -5.509,-20.268 -21.372,-20.268l0,-7.269l78.872,0l0,7.269c-15.866,0 -21.372,4.846 -21.372,20.268l0,106.185c0,13.218 0.222,18.946 16.525,18.946c27.097,0 50.006,-17.843 66.747,-37.453l5.509,2.203l-13.659,43.841l-132.622,0l0,-7.269Z" style="fill:#29490f;fill-rule:nonzero;"/><path d="M116.85,274.225l-8.278,2.834c-10.656,-17.415 -32.419,-39.822 -54.397,-39.822c-15.013,0 -27.197,8.047 -27.197,23.719c0,17.835 18.709,22.625 32.638,26.985l12.837,4.131c26.769,8.703 52.885,21.106 52.885,53.309c0,29.816 -24.816,50.488 -53.319,50.488c-9.353,0 -18.497,-1.966 -27.419,-4.797c-4.134,-1.294 -6.744,-2.388 -11.1,-2.388c-3.694,0 -5.653,0.435 -19.366,6.966l-14.134,-50.269l8.478,-2.825c12.841,20.666 33.944,44.828 60.278,44.828c15.666,0 31.766,-11.1 31.766,-27.856c0,-17.847 -17.403,-23.291 -31.331,-27.637c-28.944,-9.357 -65.279,-20.232 -65.279,-57.232c0,-27.628 21.979,-45.909 48.744,-45.909c8.919,0 15.663,1.519 23.931,4.356c3.047,1.075 5.876,2.169 9.141,2.169c5.441,0 12.838,-4.347 16.756,-8.053l14.366,47.003Z" style="fill:#710a0b;fill-rule:nonzero;"/><path d="M258.944,232.662l11.747,43.516l-8.041,2.188c-10.447,-16.322 -29.812,-36.775 -50.709,-37.216l0,123.591c0,15.24 5.44,20.031 21.115,20.031l0,7.184l-77.903,0l0,-7.184c15.666,0 21.106,-4.791 21.106,-20.031l0,-123.591c-21.762,2.612 -38.734,19.587 -50.271,37.216l-8.041,-2.188l10.656,-43.516l130.341,0Z" style="fill:#710a0b;fill-rule:nonzero;"/><path d="M328.803,256.606l-25.897,69.841l47.657,0l-21.76,-69.841Zm68.325,100.744c4.788,15.662 6.963,26.978 26.544,27.422l0,7.184l-76.375,0l0,-7.184c13.928,-0.444 17.194,-3.272 17.194,-9.788c0,-4.14 -1.313,-8.712 -2.613,-12.628l-7.834,-25.684l-55.485,0l-4.787,13.719c-1.963,5.646 -4.356,12.184 -4.356,18.281c0,11.097 10.009,15.434 19.59,16.1l0,7.184l-57.89,0l0,-7.184c20.234,-5.663 24.593,-16.541 31.337,-34.381l42.431,-113.154l31.775,-10.234l40.469,130.347Z" style="fill:#710a0b;fill-rule:nonzero;"/><path d="M473.294,357.791c0,18.712 -0.435,26.981 21.978,26.981c21.331,0 37.215,-10.453 37.215,-38.525c0,-19.372 -6.753,-34.375 -46.565,-34.375l-12.628,0l0,45.919Zm12.406,-56.147c27.419,0 39.594,-9.132 39.594,-31.763c0,-22.644 -13.263,-30.044 -34.156,-30.044c-5.004,0 -11.747,0.666 -15.229,4.141c-2.831,3.259 -2.615,7.834 -2.615,11.747l0,45.919l12.406,0Zm-69.197,90.312l0,-7.184c15.669,0 21.109,-4.791 21.109,-20.031l0,-104.869c0,-15.238 -5.44,-20.035 -21.109,-20.035l0,-7.175l78.988,0c55.487,0 67.665,17.197 67.665,36.56c0,22.425 -22.834,32.859 -41.775,36.772l0,0.434c24.163,4.791 48.963,13.709 48.963,43.097c0,25.672 -18.713,42.431 -61.141,42.431l-92.7,0Z" style="fill:#710a0b;fill-rule:nonzero;"/><path d="M582.113,384.772c15.665,0 21.109,-4.791 21.109,-20.031l0,-104.869c0,-15.238 -5.444,-20.035 -21.109,-20.035l0,-7.175l77.903,0l0,7.175c-15.672,0 -21.11,4.797 -21.11,20.035l0,104.869c0,13.062 0.213,18.718 16.313,18.718c26.772,0 49.397,-17.625 65.937,-36.99l5.438,2.184l-13.488,43.303l-130.993,0l0,-7.184Z" style="fill:#710a0b;fill-rule:nonzero;"/><path d="M718.553,384.772c15.666,0 21.103,-4.791 21.103,-20.031l0,-104.869c0,-15.238 -5.437,-20.035 -21.103,-20.035l0,-7.175l131.206,0l13.71,40.697l-6.741,2.819c-14.581,-18.925 -37.209,-35.028 -62.022,-35.028c-19.365,0 -19.365,6.528 -19.365,22.634l0,42.432l4.353,0c21.765,0 31.337,-3.694 38.734,-25.672l8.478,0l0,62.884l-8.478,0c-5.869,-21.978 -16.969,-26.991 -38.297,-26.991l-4.79,0l0,45.919c0,12.628 1.309,21.103 16.765,21.103c26.972,0 51.128,-15.228 68.107,-35.028l5.865,3.047l-16.319,40.478l-131.206,0l0,-7.184Z" style="fill:#710a0b;fill-rule:nonzero;"/><path d="M988.394,274.225l-8.282,2.834c-10.656,-17.415 -32.412,-39.822 -54.393,-39.822c-15.019,0 -27.203,8.047 -27.203,23.719c0,17.835 18.715,22.625 32.64,26.985l12.844,4.131c26.763,8.703 52.875,21.106 52.875,53.309c0,29.816 -24.813,50.488 -53.319,50.488c-9.353,0 -18.497,-1.966 -27.412,-4.797c-4.135,-1.294 -6.744,-2.388 -11.097,-2.388c-3.709,0 -5.656,0.435 -19.369,6.966l-14.15,-50.269l8.497,-2.825c12.831,20.666 33.934,44.828 60.266,44.828c15.668,0 31.771,-11.1 31.771,-27.856c0,-17.847 -17.406,-23.291 -31.331,-27.637c-28.94,-9.357 -65.284,-20.232 -65.284,-57.232c0,-27.628 21.981,-45.909 48.747,-45.909c8.919,0 15.672,1.519 23.937,4.356c3.044,1.075 5.875,2.169 9.135,2.169c5.443,0 12.837,-4.347 16.756,-8.053l14.372,47.003Z" style="fill:#710a0b;fill-rule:nonzero;"/><path d="M1049.07,375.134c0,12.966 1.631,16 11.091,16l0,3.857l-33.629,0l0,-3.857c9.341,0 10.972,-3.034 10.972,-16l0,-45.775c0,-12.84 -1.631,-15.997 -10.972,-15.997l0,-3.853l33.629,0l0,3.853c-9.46,0 -11.091,3.157 -11.091,15.997l0,45.775Z" style="fill:#710a0b;fill-rule:nonzero;"/><path d="M1132.1,373.153l0,-43.794c0,-12.84 -1.519,-15.997 -10.863,-15.997l0,-3.853l27.094,0l0,3.853c-9.225,0 -10.859,3.157 -10.859,15.997l0,65.632l-3.972,0l-50.562,-71.119l0,51.262c0,12.966 1.515,16 10.975,16l-0.116,0l0,3.857l-27.209,0l0,-3.857c9.34,0 10.978,-3.034 10.978,-16l0,-45.775c0,-12.84 -1.638,-15.997 -10.978,-15.997l0,-3.853l20.318,0l45.194,63.644Z" style="fill:#710a0b;fill-rule:nonzero;"/><path d="M1227.15,330.525l-2.922,1.403c-6.303,-8.287 -17.631,-18.916 -28.609,-18.916c-19.385,0 -24.872,20.9 -24.872,36.55c0,16.816 8.641,39.588 28.609,39.588c12.494,0 20.788,-8.644 26.744,-18.684l2.45,1.396c-6.303,13.785 -17.984,24.41 -33.631,24.41c-23.006,0 -37.603,-19.031 -37.603,-40.869c0,-10.625 3.503,-21.253 9.462,-30.134c6.072,-9.338 15.644,-17.047 27.441,-17.047c4.084,0 7.122,0.934 9.691,1.869c2.687,0.934 5.024,1.75 7.475,1.75c3.037,0 5.371,-1.166 7.94,-2.454l7.825,21.138Z" style="fill:#710a0b;fill-rule:nonzero;"/><path d="M1246.42,381.556c4.206,0 7.475,3.388 7.475,7.594c0,3.85 -3.388,7.122 -7.475,7.122c-3.853,0 -7.241,-3.272 -7.241,-7.238c0,-4.09 3.153,-7.478 7.241,-7.478Z" style="fill:#710a0b;fill-rule:nonzero;"/></svg>
