<svg width="100%" height="100%" viewBox="0 0 1242 530" version="1.1" xmlns="http://www.w3.org/2000/svg" xmlns:xlink="http://www.w3.org/1999/xlink" xml:space="preserve" style="fill-rule:evenodd;clip-rule:evenodd;stroke-linejoin:round;stroke-miterlimit:1.41421;"><g><path d="M-1.5,529.273l0.376,-356.46c2.629,0.141 6.22,-0.753 6.624,1.767c-1.772,3.151 -0.617,8.456 1.105,11.213c2.113,1.716 5.495,-5.456 8.281,-1.184c-1.365,6.014 -7.996,6.403 -9.386,12.387c1.49,2.539 4.342,3.62 8.284,3.543c0.595,4.673 5.547,4.69 7.726,7.667c0.849,4.051 -3.271,2.797 -3.312,5.901c2.774,1.369 3.56,4.851 3.866,8.852c4.277,-0.445 4.812,3.118 8.832,2.944c3.35,-7.895 -6.017,-11.377 -5.519,-20.052c2.739,-1.405 4.192,-4.175 6.073,-6.49c6.29,-0.629 6.69,5.038 11.593,5.898c5.225,-6.45 -3.644,-10.755 -1.102,-17.7c1.24,-1.034 4.151,-0.281 5.519,-1.177c2.693,-8.728 7.739,-14.934 12.147,-21.832c3.889,2.533 4.543,8.521 4.969,14.75c1.753,1.666 5.882,0.799 6.073,4.128c-0.297,3.432 -5.766,4.446 -3.866,8.263c1.587,-0.91 5.294,-1.87 7.178,-0.589c-0.735,5.479 -0.422,11.334 0.551,16.516c5.11,3.05 7.42,-5.627 11.596,-1.767c2.352,7.872 -12.081,10.25 -12.147,15.335c-0.078,5.864 7.091,1.097 9.937,5.309c0,1.77 0,3.539 0,5.312c2.464,1.693 9.114,-1.084 9.937,2.359c1.568,6.787 -5.319,4.539 -4.968,10.029c1.123,3.512 5.459,1.268 7.178,1.77c-0.416,5.064 -5.09,5.573 -6.073,10.025c3.782,2.677 9.251,-0.495 13.249,0c-0.229,-4.472 -4.227,-4.921 -3.313,-10.614c-1.111,-1.757 -4.057,-2.69 -2.207,-5.901c6.618,-0.188 8.159,5.048 14.354,5.312c3.306,-3.476 0.511,-9.113 0.551,-14.161c1.66,-2.161 6.756,-0.645 7.73,-3.539c-0.179,-1.378 -0.661,-2.439 -1.105,-3.539c-4.007,0.709 -18.637,5.433 -18.768,-4.128c1.762,-2.837 5.985,-3.045 7.729,-5.905c-1.127,-2.529 -0.613,-6.811 -2.21,-8.848c-2.971,-0.676 -8.591,-0.167 -11.593,-2.358c-2.88,-5.38 3.619,-5.537 7.179,-8.849c3.963,-3.7 9.367,-10.718 16.561,-10.621c-1.055,-7.279 -7.983,-15.713 2.207,-17.697c-2.082,-5.416 2.98,-5.553 2.21,-8.848c-0.964,-2.452 -4.376,0.877 -5.522,-1.773c0.604,-3.088 2.845,-4.429 4.971,-5.894c5.845,1.759 14.536,12.391 17.667,1.766c-3.278,-2.676 -4.487,-9.089 -3.867,-14.161c-1.121,-1.749 -4.01,-1.609 -4.968,-3.536c1.434,-8.025 -5.022,-7.613 -4.418,-14.749c5.025,-5.038 8.895,7.467 13.253,1.181c0.707,-3.512 -3.707,-1.545 -3.313,-4.72c0.132,-2.81 -0.704,-6.651 1.656,-7.082c2.405,2.623 2.624,5.075 7.176,2.95c0.839,4.219 3.5,6.49 7.178,7.671c-0.012,2.767 -0.291,5.814 2.208,5.898c3.857,-5.112 6.655,-11.628 4.968,-18.878c-1.277,-5.486 -8.206,-11.835 -1.656,-15.926c2.999,-0.449 4.474,0.726 7.178,0.588c3.425,-4.091 -1.746,-7.988 -1.105,-10.621c2.893,1.104 5.692,0.218 7.73,-1.178c0.488,-3.335 -3.074,-3.248 -1.656,-5.901c2.107,-0.304 3.778,-1.073 4.968,-2.358c0.376,-2.154 0.77,-4.292 0.551,-7.079c1.296,-1.368 2.755,-2.368 3.867,-4.128c1.584,-2.515 1.54,-7.677 4.968,-8.263c2.821,4.858 3.979,11.481 7.175,15.931c-0.115,2.823 -3.428,2.234 -2.758,5.897c1.753,4.423 4.806,7.45 8.281,10.033c2.595,1.157 2.182,-3.907 3.863,-1.773c-0.479,8.336 -7.501,9.685 -12.144,13.568c1.628,2.78 3.638,5.162 7.176,5.902c4.032,-1.459 5.3,-8.802 11.042,-6.49c0.842,2.632 -3.219,4.449 -1.102,8.848c-3.087,0.421 -5.642,3.278 -3.867,7.082c1.262,2.506 4.768,-0.873 6.074,1.766c-0.367,5.647 -2.993,8.213 -2.762,12.98c2.928,1.067 6.841,-0.606 11.045,0c1.5,-2.69 9.014,-5.811 11.593,-1.77c-2.439,5.855 -7.958,8.41 -12.698,11.799c-0.726,1.783 -0.379,4.71 -1.105,6.49c-3.894,-3.138 -6.311,-0.428 -8.835,2.362c2.533,2.669 3.068,4.489 3.316,8.848c6.086,-0.666 14.614,1.167 19.322,5.309c0,2.753 0,5.506 0,8.259c5.598,2.73 14.689,-1.916 18.218,2.951c-1.907,2.091 -2.32,5.774 -7.176,4.72c-2.943,4.326 -8.434,5.931 -13.803,7.668c-0.2,3.753 2.699,4.198 3.863,6.489c3.588,-2.157 8.6,-0.705 12.147,1.77c-0.163,7.296 -6.411,8.092 -8.831,12.98c-1.331,0.241 -1.203,-1.081 -2.762,-0.589c0.016,8.959 9.978,13.02 16.011,7.075c4.232,4.721 13.596,3.964 18.22,8.26c0.492,6.868 -0.679,10.942 -5.522,12.391c-4.136,1.237 -10.751,-1.211 -15.46,0c-2.654,0.682 -2.617,3.69 -5.519,2.95c-3.306,-0.043 -3.168,-4.064 -6.625,-2.362c-1.033,2.155 0.326,4.045 1.102,5.902c3.883,2.549 9.765,0.25 14.909,0.588c1.841,1.904 0.053,4.132 1.105,6.49c5.601,0.107 7.416,4.269 12.144,5.309c0.084,3.844 2.182,5.54 3.866,7.668c0.078,7.165 0.899,15.124 -3.315,17.699c2.398,4.323 8.978,4.175 11.596,8.26c0.009,0.963 3.121,-0.947 3.866,0.592c6.775,1.214 0.466,16.412 7.175,17.697c2.718,-2.994 -0.14,-11.95 1.657,-15.927c1.696,-1.141 4.332,-1.278 5.522,-2.954c0.235,-3.744 -0.344,-9.257 0,-11.207c2.245,-2.124 3.253,-5.57 4.417,-8.851c1.995,-0.957 5.777,0.913 8.281,-0.586c1.18,-1.492 -0.441,-5.981 1.656,-6.49c7.677,-0.267 10.009,-32.579 13.064,-28.418c3.507,0.388 13.268,30.954 15.093,33.135c-0.234,3.339 -1.12,6.46 0.551,8.855c6.061,-0.194 9.862,1.81 9.389,7.075c-0.294,3.235 -3.879,4.155 -3.866,7.079c0.019,5.061 4.909,6.353 9.386,8.259c-0.727,8.25 5.221,9.367 3.866,18.286c-0.964,1.532 -3.773,1.09 -3.312,4.131c4.004,1.904 11.762,0.328 9.385,8.256c-1.114,3.714 -6.536,2.305 -6.627,6.494c-0.079,3.569 6.22,4.422 7.178,8.259c1.312,5.272 -1.045,5.319 -1.656,11.207c5.523,-0.014 3.698,4.64 7.73,5.309c9.486,1.585 7.598,-14.599 9.382,-20.055c3.247,-0.345 5.122,3.322 8.281,1.177c1.036,-4.546 -5.228,-8.761 -4.414,-13.568c0.46,-2.73 4.458,-6.42 6.624,-6.49c3.873,-0.127 2.038,3.636 6.625,3.539c3.769,-3.485 -0.504,-7.279 0,-12.387c7.263,-3.837 7.723,-14.947 14.908,-18.878c3.187,1.696 3.096,6.637 3.312,10.029c0.313,3.008 4.414,1.974 4.418,5.306c-0.461,2.462 -4.28,2.455 -2.762,5.312c2.076,1.583 5.153,-0.866 6.074,1.181c-0.022,3.804 -0.514,9.15 1.102,12.977c3.372,0.164 6.267,-5.895 8.835,-1.178c-0.968,6.637 -8.973,5.751 -8.835,13.569c1.919,1.883 6.164,1.281 8.835,2.358c0.588,2.402 -0.398,3.432 0.551,5.904c2.708,0.96 6.802,-2.254 7.729,2.359c-2.104,2.074 -5.832,2.415 -6.07,6.486c1.177,2.084 5.591,0.71 4.965,4.717c-3.2,0.134 -5.864,6.179 -2.207,8.263c4.715,0.713 1.935,-6.587 4.971,-7.671c2.267,-1.997 5.075,2.175 6.625,-0.592c-0.385,-5.74 -4.968,-9.949 -4.418,-14.746c3.137,0.01 3.047,-3.429 6.071,-3.539c2.73,0.575 5.046,4.235 7.733,2.95c1.001,-4.89 -5.98,-11.895 2.207,-13.568c2.989,-5.46 4.079,-12.946 9.936,-15.338c4.098,4.59 1.979,12.494 7.179,15.338c0.185,2.318 -3.437,2.522 -1.656,4.72c1.562,0.616 3.788,-0.973 3.863,0c2.085,2.586 0.207,6.105 1.656,9.437c1.102,2.529 3.507,2.034 3.867,4.72c0.507,3.821 -2.868,4.965 -3.313,9.437c1.497,0.763 3.065,1.446 5.52,1.181c0.112,5.975 7.692,3.971 8.28,9.437c-1.152,1.128 -2.636,1.907 -4.414,2.362c4.383,3.295 3.112,7.952 0.551,12.388c3.225,1.866 8.425,1.619 9.386,5.901c-2.016,4.579 -7.082,3.887 -9.386,7.082c5.923,6.446 13.124,-2.804 14.354,-8.849c1.897,-0.26 3.096,0.231 4.418,0.589c0.122,7.47 5.366,11.501 3.863,18.878c0.98,2.305 3.869,-0.114 4.971,1.181c0.335,3.666 -5.162,3.696 -3.866,6.486c8.882,1.231 7.642,10.069 9.386,18.289c7.532,0.578 4.53,-10.106 9.385,-12.388c0.436,-3.415 -2.091,-3.663 -1.656,-7.078c1.115,-3.908 5.135,-2.125 8.281,-2.951c-0.479,-7.985 5.957,-8.581 6.624,-15.338c0.914,-0.987 3.244,-0.472 4.969,-0.589c1.609,6.246 6.039,12.291 5.522,18.878c1.612,1.304 4.94,-1.409 4.969,2.358c0.36,3.332 -3.119,2.562 -3.313,5.312c5.567,3.098 7.993,9.548 7.73,18.874c2.104,1.69 5.958,1.496 6.073,5.309c-0.516,2.593 -3.932,2.094 -6.073,2.951c2.958,3.723 8.046,5.168 8.284,11.799c3.86,1.378 2.175,8.687 8.28,7.67c1.224,-7.751 6.465,-13.642 11.039,-19.469c5.112,2.957 3.347,10.066 7.73,14.157c-0.054,2.422 -0.107,4.841 0.554,6.493c1.991,1.238 3.941,-1.82 5.522,0.589c-2.442,7.982 3.776,17.827 9.386,19.466c0,0 45.75,11.358 114.581,22.764c0.041,-11.684 -0.261,-33.055 -0.566,-40.213c0,0 -1.916,-17.532 1.131,-20.135c3.039,-2.599 5.779,-5.199 7.601,-11.049c0.988,-3.164 -5.582,-14.306 -10.192,-28.6c-0.283,5.432 -0.283,10.994 -0.283,12.097c0,1.951 0.782,8.644 1.565,10.872c0.783,2.232 1.565,2.79 0.783,8.645c-0.783,5.854 -4.433,1.672 -3.391,11.427c1.043,9.758 -0.783,3.345 -1.305,10.036c-0.523,6.691 -0.26,5.299 0,7.527c0.259,2.231 -3.757,5.215 -3.757,5.215c0.103,-10.009 -1.847,-9.44 -3.838,-3.87c-1.998,5.573 -1.337,5.158 -3.125,2.545c-1.775,-2.612 -3.018,0.73 -3.8,11.612c-0.786,10.882 -0.839,7.918 -2.934,-0.856c-2.097,-8.779 3.791,-39.849 3.037,-37.615c-0.761,2.231 -2.345,8.059 -2.539,-0.378c-0.2,-8.437 1.371,-9.939 1.938,-16.736c0.57,-6.791 2.695,-14.86 2.695,-14.86c0,0 -0.742,2.004 -2.194,5.329c-1.453,3.332 0.003,-4.095 1.456,-15.619c0.425,-3.36 0.746,-5.41 0.984,-6.602c-0.297,-0.917 -0.36,-3.211 0.838,-7.863c1.045,-4.047 1.832,-6.104 2.365,-7.15c0.476,-0.622 0.837,-1.08 0.837,-1.08c0,0 -0.278,-0.016 -0.837,1.08c-0.451,0.591 -1.006,1.331 -1.454,1.971c-0.918,1.312 -0.855,-3.924 2.157,-12.621c3.014,-8.702 6.759,-19.179 19.773,-23.632c0,0 -0.026,0.193 -0.074,0.555c0.276,-0.324 0.559,-0.65 0.85,-0.979c0.091,-0.104 0.251,-0.101 0.373,-0.151c12.018,-4.931 24.657,-10.21 41.065,-9.353c16.573,0.863 36.381,7.992 51.543,10.367c15.162,2.375 24.861,-3.239 29.916,-6.266c5.05,-3.024 2.828,-1.077 9.903,-4.968c7.075,-3.887 12.131,-3.021 17.588,-4.75c5.457,-1.726 2.827,-1.512 14.755,-7.992c11.924,-6.476 16.977,-9.066 28.702,-14.037c11.724,-4.967 21.219,-8.855 21.219,-8.855c0,0 0.614,-0.217 3.848,-3.024c3.231,-2.807 5.453,-5.182 7.075,-11.019c1.612,-5.828 0.805,-8.206 3.027,-3.884c2.223,4.319 0.204,9.935 0.204,9.935c0,0 1.008,0.867 3.234,0c2.223,-0.866 3.437,-5.396 4.846,-9.935c1.418,-4.536 1.218,-2.161 2.633,2.807c1.412,4.971 -1.215,10.153 -1.215,10.153c0,0 0.811,1.726 2.83,4.532c2.023,2.81 6.468,10.15 7.88,13.177c1.419,3.025 0.814,4.751 2.023,6.912c1.211,2.158 6.875,7.56 9.708,10.581c2.824,3.027 9.495,11.451 9.495,12.96c0,1.512 -2.019,6.262 -2.42,9.289c-0.407,3.025 -1.215,2.593 -2.833,3.888c-1.619,1.294 -7.075,3.238 -10.713,3.02c-3.635,-0.21 -3.237,-5.181 -3.237,-5.181c-0.805,-0.218 -2.624,-1.295 -5.05,-3.025c-2.426,-1.726 -8.494,-1.726 -12.535,-5.395c-4.042,-3.677 -12.733,-3.028 -15.56,-1.298c-2.833,1.726 -8.897,10.149 -13.953,18.573c-5.05,8.423 -21.016,25.273 -21.016,28.511c0,3.242 -1.822,16.198 -3.848,24.839c-2.016,8.634 -11.921,14.689 -13.94,15.763c-2.023,1.084 -1.616,8.213 -3.034,15.338c-1.412,7.126 -3.031,20.52 -5.657,39.311c-2.627,18.79 -1.215,34.556 0,36.069c0.52,0.648 1.562,2.293 2.582,3.96c13.239,0.904 26.642,1.64 40.135,2.173c0.194,-0.496 0.443,-1.04 0.752,-1.637c2.082,-4.028 9.711,-22.698 10.084,-25.281c0.372,-2.579 2.339,-11.511 2.339,-11.511c0,0 7.717,-6.058 10.625,-12.213c2.908,-6.156 2.724,-4.747 1.966,-8.929c-0.764,-4.185 -2.354,-15.586 -1.171,-20.757c1.184,-5.172 3.247,-10.137 3.247,-10.137c0,0 -5.138,4.349 -5.488,7.865c-0.351,3.516 -0.213,9.116 -2.445,15.954c-2.236,6.834 1.947,8.119 -5.232,9.49c-7.178,1.372 -5.707,-0.772 -6.646,-3.549c-0.946,-2.777 1.474,-1.091 2.154,-1.231c1.305,-0.268 2.949,-4.52 2.536,-3.576c-0.414,0.946 -1.948,0.759 -1.334,-0.893c0.614,-1.656 2.279,-4.972 1.65,-4.021c-0.633,0.956 -1.738,0.518 -1.541,-0.422c0.145,-0.698 1.694,-2.979 2.314,-3.818c0.087,-0.066 0.159,-0.141 0.21,-0.226c0.107,-0.183 0.004,-0.066 -0.21,0.226c-0.644,0.485 -2.1,0.429 -1.543,-0.41c0.353,-0.535 1.307,-2.047 2.041,-3.059c-0.441,-0.096 -0.761,-0.726 -0.204,-2.133c0.508,-1.285 1.081,-2.114 1.402,-2.507l0,0l0.025,-0.024l0.034,-0.033l0.006,-0.005l0.004,-0.004l0.024,-0.024l0.021,-0.021l0.005,-0.005l0.007,-0.007l0.021,-0.022l0.013,-0.013l0.004,-0.004l0.007,-0.009l0.019,-0.019l0.006,-0.007l0.003,-0.003l0.008,-0.009l0.014,-0.016l0.002,-0.003l0.002,-0.002l0.007,-0.009l0.009,-0.011l0,0c0.005,-0.006 0.008,-0.011 0.009,-0.014l0,0l0,-0.001l0.001,-0.002l0,0l0,0l-0.001,0l0,-0.001l-0.001,0l0.002,0.001l-0.001,0.002l0,0.001l-0.009,0.014l-0.009,0.011l-0.009,0.011l-0.016,0.019l-0.011,0.012l-0.025,0.026l-0.011,0.013l-0.034,0.035l-0.012,0.012l-0.045,0.045l-0.01,0.009l-0.059,0.057l0,0l0,0l0,0c0,0 0.055,-0.067 0.055,-0.067l0.017,-0.019l0.033,-0.038l0.017,-0.019l0.026,-0.028l0.015,-0.017l0.021,-0.022l0.012,-0.012l0.017,-0.016l0.009,-0.009l0.012,-0.01l0.006,-0.005l0.006,-0.004l0.003,-0.002l0,0l-0.003,0.002l-0.004,0.002l-0.002,0.002l-0.002,0.001l-0.004,0.004l-0.007,0.005l-0.005,0.005l-0.003,0.003l-0.006,0.006l-0.008,0.007l-0.009,0.009l-0.006,0.006l-0.006,0.006l-0.008,0.008l-0.013,0.014l-0.009,0.01l-0.006,0.007l-0.007,0.007l-0.019,0.021l-0.013,0.014l-0.004,0.005l-0.006,0.006l-0.027,0.032l-0.014,0.016l-0.003,0.003l-0.003,0.004l-0.052,0.063c-0.044,0.041 -0.093,0.088 -0.149,0.138c-1.068,0.967 0.604,-2.117 1.424,-4.245c0.271,-0.698 0.643,-1.097 0.975,-1.291c0.299,-0.596 0.843,-1.502 1.335,-2.509c1.043,-2.134 2.552,-2.877 2.552,-2.877c1.233,-3.071 2.749,-3.814 5.162,-3.416c2.414,0.398 0.508,2.79 6.581,0.981c6.08,-1.807 10.738,-7.778 18.424,-6.36c7.686,1.419 19.598,5.754 25.891,3.941c6.295,-1.813 10.202,-4.152 11.038,-4.52c7.351,-3.245 8.265,-1.635 8.243,-2.569c-0.025,-0.933 2.16,-0.993 3.882,-1.977c1.728,-0.983 2.33,-3.104 2.53,-3.81c0.203,-0.706 1.487,-1.676 3.002,-2.185c1.525,-0.515 1.043,-2.134 1.043,-2.134c0,0 -0.019,-0.933 1.477,-2.144c1.506,-1.208 2.611,-0.542 4.33,-1.756c1.722,-1.218 1.259,-2.138 0.37,-2.814c-0.893,-0.676 1.261,-1.903 2.992,-2.653c1.732,-0.752 4.505,-3.398 7.937,-6.065c3.434,-2.669 4.545,-1.766 4.545,-1.766c0,0 0.423,-0.713 -0.09,-3.733c-0.511,-3.021 2.495,-5.209 2.495,-5.209c0,0 0.679,0.917 0.714,2.315c0.031,1.398 2.936,3.891 2.936,3.891l5.955,-6.711c0,0 -0.958,5.399 -0.717,6.326c0.241,0.93 -1.888,3.325 -1.888,3.325c0,0 6.458,4.724 6.966,7.51c0.504,2.79 8.493,16.342 9.62,17.714c1.127,1.371 2.138,6.948 0.874,8.851c-1.265,1.904 -3.892,1.746 -3.892,1.746c0,0 1.553,0.89 0.035,1.399c-1.516,0.512 -9.536,-5.57 -11.543,-7.146c-2.007,-1.579 -4.906,-3.834 -6.875,-4.014c-1.972,-0.174 -5.685,-0.07 -6.891,4.168c-1.208,4.239 -4.962,11.585 -6.23,13.257c-1.271,1.67 -1.477,2.145 -1.65,4.018c-0.172,1.873 0.627,7.691 -1.004,12.408c-1.632,4.72 -3.04,9.661 -4.336,10.4c-1.29,0.736 13.424,12.234 14.82,15.696c1.393,3.466 1.396,3.466 1.722,7.661c0.319,4.195 -0.542,4.687 -0.698,7.259c-0.154,2.573 1.819,20.507 1.665,23.079c-0.056,0.938 -0.422,3.438 -0.864,6.235c65.045,-5.6 126.705,-18.82 176.548,-43.868l0.751,-0.379c-0.25,0.127 -0.501,0.253 -0.751,0.379l0,46.361l-216.27,0c-11.215,0.458 -22.479,0.72 -33.75,0.808c-0.067,-0.253 -0.14,-0.523 -0.217,-0.808l33.967,0c0.606,-0.024 1.211,-0.05 1.816,-0.075c0.443,-4.142 1.137,-9.693 1.738,-12.275c0.989,-4.236 1.593,-14.997 1.928,-19.209c0.332,-4.215 0.633,-18.704 0.116,-21.728c-0.51,-3.024 -3.453,-7.142 -3.453,-7.142c0,0 -7.836,1.392 -17.263,0.254c-9.426,-1.134 -16.063,-4.215 -17.19,-5.586c-1.127,-1.369 -2.42,-0.629 -4.345,1.057c-1.926,1.689 -3.904,18.797 -3.81,22.53c0.09,3.737 0.745,12.592 0.166,15.65c-0.483,2.542 4.399,19.372 6.33,26.524l-7.289,0c0.098,0.32 0.186,0.601 0.262,0.841c-13.689,0.017 -27.376,-0.217 -40.986,-0.665c0.013,-0.058 0.026,-0.116 0.037,-0.176l40.687,0c-1.59,-5.155 -5.989,-20.072 -7.491,-23.484c-1.622,-3.693 -3.597,-4.104 -2.692,-11.604c0.907,-7.501 0.895,-16.844 0.895,-16.844c0,0 -13.02,12.515 -16.358,19.149c-3.334,6.637 -4.211,6.429 -5.907,8.577c-1.694,2.147 -8.757,17.067 -8.879,21.042c-0.043,1.412 -0.097,2.382 -0.255,3.164l-945.286,0Zm1035.88,-0.392c-0.258,-2.155 0.2,-10.026 0.778,-12.828c0.592,-2.817 4.267,-13.201 4.828,-16.954c0.563,-3.75 1.13,-16.148 1.246,-20.356c0.115,-4.209 1.293,-0.736 1.293,-0.736l2.213,1.107c2.213,1.104 13.599,10.822 14.288,11.973c0.683,1.147 0.98,13.053 0.273,19.844c-0.469,4.504 -0.401,11.246 -0.149,16.367c-8.213,0.643 -16.475,1.168 -24.77,1.583Zm-162.341,-3.665c-0.711,-1.544 -1.574,-3.168 -2.568,-4.584c-3.03,-4.322 0.404,-16.418 0.404,-19.874c0,-3.452 10.716,-28.077 10.716,-29.154c0,-1.084 1.008,19.657 0.401,29.375c-0.601,9.718 -1.412,23.972 -1.412,23.972c0,0 1.02,0.414 2.268,1.053c-3.282,-0.253 -6.552,-0.516 -9.809,-0.788Zm-108.706,-12.622c-2.056,-8.096 -4.18,-22.142 -4.631,-27.599c-0.607,-7.343 4.849,-25.919 6.875,-36.932c2.022,-11.016 8.284,-27.866 10.917,-31.971c2.623,-4.104 3.841,-9.935 8.487,-6.045c4.649,3.888 25.264,16.419 48.105,20.303c22.842,3.887 33.755,4.75 34.97,4.101c1.215,-0.645 -2.423,34.778 -3.237,39.314c-0.805,4.533 0.814,9.069 0.61,11.444c-0.2,2.375 -7.682,28.512 -8.083,30.456c-0.387,1.844 2.697,4.474 4.049,8.626c-34.8,-3.143 -67.961,-7.278 -98.062,-11.697Zm-12.264,-1.841c-4.434,-0.68 -8.792,-1.364 -13.071,-2.05c-0.344,-12.186 0.492,-29.974 0.492,-29.974l5.05,-9.069l7.529,41.093Zm198.472,-59.747c0.57,-0.787 1.007,-1.272 0.923,-0.758c-0.087,0.537 -0.549,0.84 -0.923,0.758Zm3.448,-10.038c0.679,-0.397 1.189,0.059 0.321,0.555c-0.682,0.388 -0.653,0.108 -0.321,-0.555Zm-241.784,-45.133c0.58,-2.898 0.677,-0.711 0.637,0.095c-0.027,0.498 -0.404,0.624 -0.637,-0.095Z" style="fill:#fff;"/></g></svg>
