<svg width="100%" height="100%" viewBox="0 0 765 450" version="1.1" xmlns="http://www.w3.org/2000/svg" xmlns:xlink="http://www.w3.org/1999/xlink" xml:space="preserve" style="fill-rule:evenodd;clip-rule:evenodd;stroke-linejoin:round;stroke-miterlimit:1.41421;"><path d="M764.25,114.628c-2.563,0.067 -5.852,-0.595 -6.238,1.653c1.769,2.944 0.616,7.9 -1.103,10.475c-2.109,1.603 -5.484,-5.097 -8.265,-1.106c1.362,5.619 7.981,5.981 9.368,11.572c-1.487,2.372 -4.334,3.381 -8.268,3.309c-0.594,4.366 -5.538,4.382 -7.713,7.163c-0.847,3.784 3.266,2.612 3.306,5.512c-2.768,1.278 -3.553,4.532 -3.859,8.269c-4.269,-0.416 -4.803,2.913 -8.815,2.75c-3.344,-7.375 6.006,-10.628 5.509,-18.731c-2.734,-1.313 -4.185,-3.9 -6.063,-6.063c-6.278,-0.587 -6.678,4.707 -11.572,5.51c-5.215,-6.025 3.638,-10.047 1.101,-16.535c-1.238,-0.965 -4.144,-0.262 -5.51,-1.1c-2.687,-8.153 -7.725,-13.95 -12.125,-20.393c-3.881,2.365 -4.534,7.959 -4.959,13.778c-1.75,1.556 -5.872,0.747 -6.063,3.856c0.297,3.206 5.756,4.153 3.86,7.719c-1.585,-0.85 -5.285,-1.747 -7.166,-0.55c0.734,5.118 0.422,10.587 -0.55,15.428c-5.1,2.85 -7.406,-5.256 -11.575,-1.65c-2.347,7.353 12.059,9.575 12.125,14.325c0.078,5.478 -7.078,1.025 -9.919,4.959c0,1.653 0,3.306 0,4.963c-2.459,1.581 -9.097,-1.013 -9.919,2.203c-1.565,6.34 5.31,4.24 4.96,9.369c-1.122,3.281 -5.45,1.184 -7.166,1.653c0.416,4.731 5.082,5.206 6.063,9.365c-3.775,2.5 -9.235,-0.462 -13.225,0c0.228,-4.178 4.218,-4.597 3.306,-9.915c1.109,-1.641 4.05,-2.513 2.203,-5.513c-6.606,-0.175 -8.144,4.716 -14.328,4.963c-3.3,-3.247 -0.509,-8.513 -0.55,-13.228c-1.656,-2.019 -6.744,-0.604 -7.716,-3.307c0.179,-1.287 0.66,-2.278 1.103,-3.306c4.001,0.663 18.604,5.075 18.735,-3.856c-1.759,-2.65 -5.975,-2.844 -7.716,-5.516c1.125,-2.362 0.613,-6.362 2.207,-8.265c2.965,-0.632 8.575,-0.157 11.571,-2.204c2.875,-5.025 -3.612,-5.171 -7.165,-8.265c-3.957,-3.456 -9.35,-10.013 -16.532,-9.922c1.054,-6.8 7.969,-14.678 -2.203,-16.531c2.078,-5.06 -2.975,-5.188 -2.206,-8.266c0.963,-2.291 4.369,0.819 5.513,-1.656c-0.604,-2.885 -2.841,-4.138 -4.963,-5.506c-5.834,1.643 -14.509,11.575 -17.634,1.65c3.272,-2.5 4.478,-8.491 3.859,-13.229c1.119,-1.634 4.003,-1.503 4.96,-3.303c-1.432,-7.497 5.012,-7.112 4.409,-13.778c-5.016,-4.706 -8.878,6.975 -13.228,1.103c-0.707,-3.281 3.7,-1.443 3.306,-4.409c-0.131,-2.625 0.703,-6.213 -1.653,-6.616c-2.4,2.45 -2.619,4.741 -7.163,2.757c-0.837,3.94 -3.493,6.062 -7.165,7.165c0.012,2.585 0.29,5.431 -2.203,5.51c-3.85,-4.775 -6.644,-10.863 -4.96,-17.635c1.275,-5.125 8.191,-11.056 1.653,-14.878c-2.993,-0.419 -4.465,0.678 -7.165,0.55c-3.419,-3.822 1.744,-7.462 1.103,-9.922c-2.888,1.031 -5.681,0.203 -7.716,-1.1c-0.487,-3.115 3.069,-3.034 1.653,-5.512c-2.103,-0.285 -3.771,-1.003 -4.959,-2.203c-0.375,-2.013 -0.769,-4.01 -0.55,-6.613c-1.294,-1.278 -2.75,-2.212 -3.859,-3.856c-1.582,-2.35 -1.538,-7.172 -4.96,-7.719c-2.815,4.538 -3.972,10.725 -7.162,14.881c0.115,2.638 3.422,2.088 2.753,5.51c-1.75,4.131 -4.797,6.959 -8.266,9.372c-2.59,1.081 -2.178,-3.65 -3.856,-1.657c0.478,7.788 7.488,9.047 12.122,12.675c-1.625,2.597 -3.631,4.822 -7.163,5.513c-4.025,-1.363 -5.29,-8.222 -11.021,-6.063c-0.841,2.46 3.212,4.157 1.099,8.266c3.082,0.394 5.632,3.062 3.86,6.616c-1.26,2.34 -4.76,-0.816 -6.063,1.65c0.366,5.275 2.988,7.671 2.757,12.125c-2.922,0.996 -6.828,-0.566 -11.025,0c-1.497,-2.513 -8.997,-5.429 -11.572,-1.654c2.434,5.469 7.943,7.857 12.675,11.022c0.725,1.666 0.378,4.4 1.103,6.063c3.887,-2.931 6.3,-0.4 8.819,2.206c-2.528,2.494 -3.063,4.194 -3.31,8.266c-6.075,-0.622 -14.587,1.09 -19.287,4.959c0,2.572 0,5.144 0,7.716c-5.588,2.55 -14.663,-1.791 -18.185,2.756c1.903,1.953 2.316,5.394 7.163,4.409c2.937,4.041 8.419,5.541 13.778,7.163c0.2,3.506 -2.694,3.922 -3.856,6.062c-3.582,-2.015 -8.585,-0.659 -12.125,1.653c0.162,6.816 6.4,7.56 8.815,12.125c1.328,0.225 1.2,-1.009 2.757,-0.55c-0.016,8.369 -9.96,12.163 -15.982,6.61c-4.225,4.409 -13.572,3.703 -18.187,7.715c-0.491,6.416 0.678,10.222 5.512,11.575c4.128,1.157 10.732,-1.131 15.432,0c2.65,0.638 2.612,3.447 5.509,2.757c3.3,-0.041 3.162,-3.797 6.613,-2.207c1.031,2.013 -0.326,3.779 -1.101,5.513c-3.875,2.381 -9.746,0.234 -14.881,0.55c-1.837,1.778 -0.053,3.859 -1.103,6.062c-5.591,0.1 -7.403,3.988 -12.122,4.96c-0.084,3.59 -2.178,5.175 -3.859,7.162c-0.078,6.694 -0.897,14.128 3.309,16.535c-2.394,4.037 -8.962,3.9 -11.575,7.715c-0.009,0.9 -3.115,-0.884 -3.859,0.553c-6.763,1.135 -0.466,15.332 -7.163,16.532c-2.712,-2.797 0.141,-11.163 -1.653,-14.878c-1.694,-1.066 -4.325,-1.194 -5.512,-2.76c-0.235,-3.497 0.343,-8.647 0,-10.469c-2.241,-1.984 -3.247,-5.203 -4.41,-8.268c-1.99,-0.894 -5.765,0.853 -8.265,-0.547c-1.178,-1.394 0.44,-5.588 -1.653,-6.063c-7.663,-0.25 -9.991,-30.434 -13.041,-26.547c-3.5,0.363 -13.244,28.916 -15.066,30.954c0.235,3.118 1.119,6.034 -0.55,8.271c-6.05,-0.181 -9.843,1.691 -9.372,6.61c0.294,3.022 3.872,3.881 3.86,6.612c-0.019,4.728 -4.9,5.935 -9.369,7.716c0.725,7.706 -5.212,8.75 -3.859,17.081c0.962,1.431 3.765,1.019 3.306,3.86c-3.997,1.778 -11.741,0.306 -9.369,7.712c1.113,3.469 6.525,2.153 6.616,6.066c0.078,3.334 -6.209,4.131 -7.166,7.715c-1.309,4.925 1.044,4.969 1.653,10.469c-5.512,-0.012 -3.69,4.334 -7.715,4.959c-9.469,1.482 -7.585,-13.637 -9.366,-18.734c-3.24,-0.322 -5.112,3.103 -8.266,1.1c-1.034,-4.247 5.219,-8.184 4.407,-12.675c-0.46,-2.55 -4.45,-5.997 -6.613,-6.062c-3.865,-0.119 -2.034,3.396 -6.612,3.306c-3.763,-3.256 0.503,-6.8 0,-11.572c-7.25,-3.584 -7.71,-13.963 -14.881,-17.634c-3.182,1.584 -3.091,6.2 -3.307,9.368c-0.312,2.81 -4.406,1.844 -4.409,4.957c0.459,2.3 4.272,2.293 2.756,4.962c-2.072,1.478 -5.144,-0.809 -6.062,1.103c0.021,3.553 0.512,8.547 -1.1,12.122c-3.366,0.153 -6.257,-5.506 -8.819,-1.1c0.966,6.2 8.956,5.372 8.819,12.675c-1.916,1.759 -6.154,1.197 -8.819,2.203c-0.588,2.244 0.397,3.206 -0.55,5.516c-2.703,0.897 -6.791,-2.106 -7.716,2.203c2.1,1.937 5.822,2.256 6.06,6.059c-1.175,1.947 -5.582,0.663 -4.957,4.407c3.194,0.125 5.854,5.771 2.204,7.718c-4.707,0.666 -1.932,-6.153 -4.963,-7.165c-2.263,-1.866 -5.066,2.031 -6.613,-0.553c0.385,-5.363 4.96,-9.294 4.41,-13.775c-3.131,0.009 -3.041,-3.204 -6.06,-3.307c-2.724,0.538 -5.037,3.957 -7.718,2.757c-1,-4.569 5.968,-11.113 -2.203,-12.675c-2.985,-5.1 -4.072,-12.094 -9.919,-14.329c-4.091,4.288 -1.975,11.672 -7.166,14.329c-0.184,2.165 3.432,2.356 1.653,4.409c-1.559,0.575 -3.781,-0.909 -3.856,0c-2.081,2.416 -0.206,5.703 -1.653,8.816c-1.1,2.362 -3.5,1.9 -3.859,4.409c-0.507,3.569 2.862,4.637 3.306,8.816c-1.494,0.712 -3.06,1.35 -5.509,1.103c-0.113,5.581 -7.679,3.709 -8.266,8.815c1.15,1.053 2.631,1.782 4.406,2.207c-4.375,3.078 -3.106,7.428 -0.55,11.571c-3.219,1.744 -8.409,1.513 -9.369,5.513c2.013,4.278 7.069,3.631 9.369,6.616c-5.912,6.021 -13.1,-2.619 -14.328,-8.266c-1.894,-0.244 -3.091,0.216 -4.409,0.55c-0.122,6.978 -5.357,10.744 -3.857,17.634c-0.978,2.153 -3.862,-0.106 -4.962,1.103c-0.334,3.425 5.153,3.454 3.859,6.06c-8.865,1.15 -7.628,9.406 -9.369,17.084c-7.518,0.541 -4.521,-9.44 -9.368,-11.572c-0.435,-3.19 2.087,-3.422 1.653,-6.612c-1.113,-3.65 -5.125,-1.985 -8.266,-2.756c0.478,-7.46 -5.947,-8.016 -6.612,-14.329c-0.913,-0.921 -3.238,-0.44 -4.96,-0.55c-1.606,5.835 -6.028,11.482 -5.512,17.635c-1.609,1.219 -4.931,-1.316 -4.96,2.203c-0.359,3.112 3.113,2.394 3.307,4.962c-5.557,2.894 -7.978,8.919 -7.716,17.632c-2.1,1.578 -5.947,1.397 -6.062,4.959c0.515,2.422 3.925,1.956 6.062,2.756c-2.953,3.478 -8.031,4.828 -8.269,11.022c-3.853,1.288 -2.172,8.116 -8.265,7.166c-1.222,-7.241 -6.453,-12.744 -11.019,-18.188c-5.103,2.763 -3.341,9.403 -7.716,13.225c0.054,2.263 0.107,4.522 -0.553,6.066c-1.987,1.156 -3.934,-1.7 -5.512,0.55c2.437,7.456 -3.769,16.653 -9.369,18.184c0,0 -43.042,38.829 -151.25,43.689l764.25,0.574l0,-335.241Z" style="fill:#29490f;"/></svg>
